<?xml version="1.0" standalone="no"?>
<!DOCTYPE svg PUBLIC "-//W3C//DTD SVG 1.1//EN" "http://www.w3.org/Graphics/SVG/1.1/DTD/svg11.dtd" >
<!--
2013-9-30: Created.
-->
<svg>
<metadata>
Created by iconfont
</metadata>
<defs>

<font id="iconfont" horiz-adv-x="1024" >
  <font-face
    font-family="iconfont"
    font-weight="500"
    font-stretch="normal"
    units-per-em="1024"
    ascent="896"
    descent="-128"
  />
    <missing-glyph />
    
    <glyph glyph-name="88" unicode="&#59000;" d="M512 745C266.265 745 67 545.738 67 299.993S266.236-144.985 512-145c245.735 0.015 445 199.262 445 445.008C957 545.753 757.765 745 512 745zM512-115.319c-229.019 0-415.333 186.298-415.333 415.313C96.667 529.022 282.981 715.334 512 715.305c229.019 0.015 415.334-186.282 415.334-415.312C927.334 70.979 741.019-115.319 512-115.319zM468.92 431.926c0-14.34 11.646-25.957 25.987-25.957s25.929 11.617 25.929 25.957c0 14.341-11.588 25.958-25.929 25.958S468.92 446.267 468.92 431.926zM337.013 431.926c0-14.34 11.618-25.957 25.929-25.957 14.341 0 25.987 11.617 25.987 25.957 0 14.341-11.646 25.958-25.987 25.958C348.631 457.884 337.013 446.267 337.013 431.926zM593.584 446.832c7.938 0.941 16.021 1.521 24.22 1.666-30.594 64.706-103.341 110.364-188.082 110.364-112.235 0-203.553-80.047-203.553-178.446 0-56.537 30.391-109.351 81.728-143.015l-40.473-95.937 99.864 69.24c13.559-3.839 27.32-6.302 41.14-7.619-2.028 7.503-3.65 15.122-4.693 22.915-11.82 1.521-23.554 3.94-35.113 7.519l-5.157 1.594-45.746-31.709 18.165 43.051-8.373 4.939c-49.512 29.231-79.092 77.468-79.092 129.021 0 86.131 81.352 156.196 181.303 156.196C502.092 536.612 564.525 499.79 593.584 446.832zM797.832 249.989c0 85.029-78.831 154.212-175.683 154.212-96.88 0-175.683-69.183-175.683-154.212s78.803-154.212 175.683-154.212c17.847 0 35.692 2.463 53.075 7.33l89.319-61.969-36.243 85.971C772.019 156.196 797.832 201.492 797.832 249.989zM708.745 141.088l-8.402-4.954 13.936-33.026-35.2 24.407-5.157-1.593c-16.919-5.244-34.331-7.895-51.771-7.895-84.597 0-153.433 59.201-153.433 131.962 0 72.76 68.836 131.962 153.433 131.962s153.433-59.202 153.433-131.962C775.582 206.475 750.579 165.757 708.745 141.088zM566.408 316.304c-12.283 0-22.25-9.98-22.25-22.265 0-12.283 9.967-22.234 22.25-22.234 12.284 0 22.221 9.951 22.221 22.234C588.629 306.323 578.692 316.304 566.408 316.304zM679.252 316.304c-12.284 0-22.25-9.98-22.25-22.265 0-12.283 9.966-22.234 22.25-22.234s22.221 9.951 22.221 22.234C701.473 306.323 691.536 316.304 679.252 316.304z"  horiz-adv-x="1024" />

    
    <glyph glyph-name="07jiantouxiangshang" unicode="&#58898;" d="M960 384c0-247.039-200.961-448-448-448S64 136.961 64 384 264.961 832 512 832 960 631.039 960 384zM128 384c0-211.744 172.256-384 384-384s384 172.256 384 384S723.744 768 512 768 128 595.744 128 384zM501.152 540.832c-0.127-0.033-0.256-0.193-0.384-0.256-3.616-1.536-7.072-3.649-10.048-6.592-0.033-0.033-0.033-0.064-0.064-0.096-0.033-0.033-0.064-0.033-0.096-0.064L331.202 374.912c-12.513-12.48-12.576-32.735-0.064-45.248 12.48-12.513 32.735-12.544 45.248-0.064l136.672 136.288 135.904-137.408c12.447-12.576 32.672-12.673 45.248-0.256 6.336 6.239 9.504 14.496 9.504 22.751 0 8.128-3.103 16.256-9.248 22.497L535.971 533.728C526.592 543.232 512.767 545.601 501.152 540.832z"  horiz-adv-x="1024" />

    
    <glyph glyph-name="weibo" unicode="&#58967;" d="M445.146218 221.098446C344.252711 216.374421 262.697586 266.973207 262.697586 334.291288 262.697586 401.684004 344.252711 455.743577 445.146218 460.402645 546.093627 465.050657 627.820134 423.452127 627.820134 356.183796 627.820134 288.860186 546.093627 225.671825 445.146218 221.098446M659.97061 439.821751C635.993891 444.469763 647.650545 457.373075 647.650545 457.373075 647.650545 457.373075 671.092392 496.023582 643.002533 524.113441 608.190127 558.914791 523.612345 519.681037 523.612345 519.681037 491.30569 509.660791 499.856761 524.265472 504.42461 549.104623 504.42461 578.372034 494.404364 627.934242 408.331145 598.661304 322.369877 569.243245 248.551764 466.135608 248.551764 466.135608 197.209407 397.646884 204.017646 344.705434 204.017646 344.705434 216.822829 227.809941 341.018591 195.72995 437.61376 188.133914 539.252221 180.164707 676.399669 223.166074 718.002344 311.501794 759.589819 400.006134 684.00676 435.021708 659.97061 439.821751M459.247814 333.556009C452.816889 328.75735 444.908498 329.415231 441.53893 335.181365 437.992455 340.780263 439.320655 349.774987 445.809628 354.499016 453.324123 360.10206 461.153736 358.487763 464.538505 352.87366 467.923274 347.129641 465.499067 338.502557 459.247814 333.556009M399.417965 282.607553C380.467953 280.378223 365.199862 291.299599 365.199862 307.161993 365.199862 322.931785 378.77764 339.463118 397.733181 341.439524 419.484715 343.512678 433.64574 330.964566 433.64574 315.120141 433.64574 299.34482 418.286433 284.745665 399.417965 282.607553M425.013126 415.997063C323.552957 404.124801 335.273189 309.077587 335.273189 309.077587 335.273189 309.077587 334.232466 278.974005 362.478503 263.652012 421.849494 231.486332 482.970228 250.954633 513.878194 290.851797 544.770956 330.743431 526.635001 427.804368 425.013126 415.997063M709.36973 480.966953C717.549016 480.966953 724.492701 487.023329 725.674397 494.901314 725.815372 495.499766 725.880333 496.023582 725.880333 496.677317 738.275031 608.098302 634.591057 588.921625 634.591057 588.921625 625.375196 588.921625 618.005821 581.476237 618.005821 572.185742 618.005821 563.038984 625.375196 555.58945 634.591057 555.58945 709.072579 572.03371 692.622792 497.561861 692.622792 497.561861 692.622792 488.347384 700.138668 480.966953 709.36973 480.966953M697.287389 675.459231C661.434259 683.855505 624.570811 676.60914 614.221626 674.634115 613.432446 674.552571 612.676433 673.807618 611.953595 673.65144 611.591482 673.586481 611.370347 673.218842 611.370347 673.218842 601.177339 670.341304 593.743007 660.904306 593.743007 649.765939 593.743007 636.496369 604.502677 625.579139 617.924278 625.579139 617.924278 625.579139 630.983769 627.328881 639.822316 630.795195 648.595905 634.320939 722.856289 633.423955 759.730794 571.483633 779.862505 526.284724 768.584545 496.023582 767.185857 491.159962 767.185857 491.159962 762.392725 479.421764 762.392725 467.852179 762.392725 454.501065 773.152395 446.111701 786.497982 446.111701 797.636347 446.111701 807.008388 447.644454 809.735277 466.492191L809.874868 466.492191C849.47488 598.466427 761.430782 660.477236 697.287389 675.459231M511.996538 894.651452C238.349895 894.651452 16.493931 672.80104 16.493931 399.191869 16.493931 125.491101 238.345732-96.31629 511.996538-96.31629 785.654285-96.31629 1007.506085 125.491101 1007.506085 399.191869 1007.506085 672.80104 785.654285 894.651452 511.996538 894.651452M511.240469 868.11292C769.41386 868.11292 979.454028 658.115711 979.454028 399.947865 979.454028 141.731516 769.41386-68.292023 511.240469-68.292023 253.029665-68.292023 42.989498 141.731516 42.989498 399.947865 42.989498 658.115711 253.029665 868.11292 511.240469 868.11292"  horiz-adv-x="1024" />

    
    <glyph glyph-name="dian" unicode="&#58913;" d="M1.792 382.893c0-282.352 228.897-511.248 511.248-511.248s511.248 228.897 511.248 511.248c0 282.352-228.897 511.248-511.248 511.248-282.352 0-511.248-228.897-511.248-511.248z"  horiz-adv-x="1024" />

    
    <glyph glyph-name="weixin" unicode="&#58956;" d="M512.73678-72.402751c-246.990301 0-447.905216 200.953801-447.905216 447.911356 0 246.943228 200.914916 447.898053 447.905216 447.898053 246.947322 0 447.904193-200.953801 447.904193-447.898053C960.640973 128.550027 759.684102-72.402751 512.73678-72.402751zM512.73678 806.167019c-237.487879 0-430.665577-193.171558-430.665577-430.658414s193.177698-430.658414 430.665577-430.658414c237.4449 0 430.664553 193.171558 430.664553 430.658414S750.180658 806.167019 512.73678 806.167019zM615.259782 441.373709c7.009647 0 13.96199-0.534166 20.772093-1.310855-18.720364 87.122243-111.826901 151.754263-217.995943 151.754263-118.79357 0-216.116129-80.980359-216.116129-183.831842 0-59.268872 32.413224-108.029412 86.48063-145.877415l-21.598924-64.989153 75.53944 37.912471c26.998911-5.342682 48.654117-10.849092 75.696006-10.849092 6.752798 0 13.477966 0.314155 20.117177 0.854461-4.188392 14.46034-6.639211 29.570479-6.639211 45.25674C431.512874 364.731144 512.564865 441.373709 615.259782 441.373709zM499.101225 499.943662c16.213263 0 27.027563-10.671037 27.027563-26.948769 0-16.2061-10.813277-27.055193-27.027563-27.055193-16.22759 0-32.483832 10.849092-32.483832 27.055193C466.618417 489.272625 482.873636 499.943662 499.101225 499.943662zM347.824847 445.939701c-16.213263 0-32.598442 10.849092-32.598442 27.055193 0 16.276708 16.384156 26.948769 32.598442 26.948769 16.184611 0 26.912953-10.671037 26.912953-26.948769C374.7378 456.788793 364.009458 445.939701 347.824847 445.939701zM812.484655 272.899646c0 86.424348-86.424348 156.841118-183.504384 156.841118-102.850459 0-183.874821-70.416769-183.874821-156.841118 0-86.573751 81.023338-156.798139 183.874821-156.798139 21.512966 0 43.169195 5.385661 64.796772 10.813277l59.311851-32.483832-16.299221 54.011124C780.214694 180.984237 812.484655 224.181061 812.484655 272.899646zM569.33994 299.955862c-10.770298 0-21.626553 10.714016-21.626553 21.606087 0 10.79281 10.856255 21.609157 21.626553 21.609157 16.3422 0 27.04189-10.81737 27.04189-21.609157C596.381829 310.668855 585.68214 299.955862 569.33994 299.955862zM688.205141 299.955862c-10.685363 0-21.456684 10.714016-21.456684 21.606087 0 10.79281 10.770298 21.609157 21.456684 21.609157 16.22759 0 27.083845-10.81737 27.083845-21.609157C715.290009 310.668855 704.432731 299.955862 688.205141 299.955862z"  horiz-adv-x="1024" />

    
    <glyph glyph-name="weixin1" unicode="&#58929;" d="M512.73678-72.402751c-246.990301 0-447.905216 200.953801-447.905216 447.911356 0 246.943228 200.914916 447.898053 447.905216 447.898053 246.947322 0 447.904193-200.953801 447.904193-447.898053C960.640973 128.550027 759.684102-72.402751 512.73678-72.402751zM512.73678 806.167019c-237.487879 0-430.665577-193.171558-430.665577-430.658414s193.177698-430.658414 430.665577-430.658414c237.4449 0 430.664553 193.171558 430.664553 430.658414S750.180658 806.167019 512.73678 806.167019zM615.259782 441.373709c7.009647 0 13.96199-0.534166 20.772093-1.310855-18.720364 87.122243-111.826901 151.754263-217.995943 151.754263-118.79357 0-216.116129-80.980359-216.116129-183.831842 0-59.268872 32.413224-108.029412 86.48063-145.877415l-21.598924-64.989153 75.53944 37.912471c26.998911-5.342682 48.654117-10.849092 75.696006-10.849092 6.752798 0 13.477966 0.314155 20.117177 0.854461-4.188392 14.46034-6.639211 29.570479-6.639211 45.25674C431.512874 364.731144 512.564865 441.373709 615.259782 441.373709zM499.101225 499.943662c16.213263 0 27.027563-10.671037 27.027563-26.948769 0-16.2061-10.813277-27.055193-27.027563-27.055193-16.22759 0-32.483832 10.849092-32.483832 27.055193C466.618417 489.272625 482.873636 499.943662 499.101225 499.943662zM347.824847 445.939701c-16.213263 0-32.598442 10.849092-32.598442 27.055193 0 16.276708 16.384156 26.948769 32.598442 26.948769 16.184611 0 26.912953-10.671037 26.912953-26.948769C374.7378 456.788793 364.009458 445.939701 347.824847 445.939701zM812.484655 272.899646c0 86.424348-86.424348 156.841118-183.504384 156.841118-102.850459 0-183.874821-70.416769-183.874821-156.841118 0-86.573751 81.023338-156.798139 183.874821-156.798139 21.512966 0 43.169195 5.385661 64.796772 10.813277l59.311851-32.483832-16.299221 54.011124C780.214694 180.984237 812.484655 224.181061 812.484655 272.899646zM569.33994 299.955862c-10.770298 0-21.626553 10.714016-21.626553 21.606087 0 10.79281 10.856255 21.609157 21.626553 21.609157 16.3422 0 27.04189-10.81737 27.04189-21.609157C596.381829 310.668855 585.68214 299.955862 569.33994 299.955862zM688.205141 299.955862c-10.685363 0-21.456684 10.714016-21.456684 21.606087 0 10.79281 10.770298 21.609157 21.456684 21.609157 16.22759 0 27.083845-10.81737 27.083845-21.609157C715.290009 310.668855 704.432731 299.955862 688.205141 299.955862z"  horiz-adv-x="1024" />

    
    <glyph glyph-name="iconarrowr" unicode="&#58918;" d="M268.061538 784.861538 311.630769 828.430769 755.938462 384.123077 755.692308 384 755.938462 383.876923 311.630769-60.430769 268.061538-16.861538 668.923077 384Z"  horiz-adv-x="1024" />

    
    <glyph glyph-name="iconarrowl" unicode="&#58924;" d="M755.938462 784.861538 712.369231 828.430769 268.061538 384.123077 268.307692 384 268.061538 383.876923 712.369231-60.430769 755.938462-16.861538 355.076923 384Z"  horiz-adv-x="1024" />

    
    <glyph glyph-name="haofangtuo400iconfontweibo" unicode="&#59101;" d="M714.1376 404.47488c10.073088 42.872832-1.181696 69.892096-13.4144 85.548032-28.9536 37.059584-87.865344 43.669504-161.624064 19.51744 8.087552 41.054208 1.099776 74.452992-20.723712 96.27648-28.412928 28.413952-76.585984 31.68256-135.643136 9.206784-53.709824-20.441088-111.845376-60.254208-163.697664-112.106496-38.566912-38.565888-70.805504-81.009664-93.231104-122.742784-22.532096-41.929728-34.1504-81.261568-33.6128-113.78176l-0.004096-0.180224c-0.014336-0.500736-0.0256-1.002496-0.0256-1.50528 0-34.072576 10.616832-66.941952 31.555584-97.695744 19.567616-28.73856 47.322112-54.388736 82.492416-76.2368 70.508544-43.800576 163.836928-67.922944 262.792192-67.922944s192.283648 24.122368 262.792192 67.922944c35.170304 21.848064 62.9248 47.49824 82.492416 76.2368 20.938752 30.752768 31.555584 63.623168 31.555584 97.695744C845.841408 320.019456 798.132224 370.340864 714.1376 404.47488zM710.178816 125.566976c-64.106496-39.824384-149.758976-61.756416-241.1776-61.756416s-177.071104 21.932032-241.1776 61.756416C166.752256 163.504128 133.12 212.918272 133.12 264.68864l0.009216 0.382976c0.01024 0.359424 0.019456 0.718848 0.022528 1.079296 0.002048 0.208896 0.001024 0.417792-0.003072 0.626688-0.498688 25.211904 9.705472 58.597376 28.734464 94.007296 20.558848 38.258688 50.336768 77.390848 86.114304 113.168384 47.853568 47.854592 100.878336 84.358144 149.303296 102.788096 21.277696 8.097792 40.322048 12.146688 56.054784 12.146688 15.655936 0 28.033024-4.012032 36.056064-12.035072 16.3584-16.357376 16.048128-50.618368-0.84992-93.997056-3.012608-7.733248-1.060864-16.519168 4.943872-22.249472s14.872576-7.269376 22.455296-3.900416c37.00224 16.441344 71.431168 25.448448 99.566592 26.048512 17.45408 0.367616 40.80128-2.440192 52.917248-17.949696 7.691264-9.843712 14.17728-29.284352 1.40288-66.000896-3.693568-10.616832 1.860608-22.226944 12.444672-26.013696 76.760064-27.455488 122.587136-67.861504 122.587136-108.085248C804.881408 212.918272 771.248128 163.504128 710.178816 125.566976zM592.758784 359.09632c-45.27104 20.865024-103.397376 29.452288-163.677184 24.178688-60.27776-5.2736-116.031488-23.82336-156.991488-52.233216-43.949056-30.482432-66.254848-68.95616-62.810112-108.33408 3.444736-39.37792 32.093184-73.394176 80.667648-95.781888 36.564992-16.852992 81.511424-25.694208 129.209344-25.694208 11.357184 0 22.875136 0.50176 34.468864 1.51552 60.27776 5.2736 116.031488 23.82336 156.991488 52.233216 43.949056 30.482432 66.255872 68.957184 62.810112 108.335104C669.980672 302.692352 641.332224 336.708608 592.758784 359.09632zM450.500608 138.44992c-54.162432-4.738048-105.854976 2.727936-145.55136 21.023744-36.393984 16.77312-57.690112 40.339456-59.966464 66.356224-2.276352 26.016768 14.604288 52.922368 47.532032 75.761664 35.9168 24.911872 85.525504 41.240576 139.689984 45.979648 10.38848 0.908288 20.64384 1.347584 30.726144 1.347584 93.223936 0 170.3168-37.581824 174.79168-88.727552C642.680832 203.512832 556.944384 147.7632 450.500608 138.44992zM772.092928 477.4144c0-11.311104 9.168896-20.48 20.48-20.48s20.48 9.168896 20.48 20.48c0 70.837248-57.63072 128.467968-128.467968 128.467968-11.311104 0-20.48-9.168896-20.48-20.48s9.168896-20.48 20.48-20.48C732.836864 564.922368 772.092928 525.666304 772.092928 477.4144zM859.420672 652.250112c-46.700544 46.700544-108.791808 72.419328-174.835712 72.419328-11.311104 0-20.48-9.168896-20.48-20.48s9.168896-20.48 20.48-20.48c113.75104 0 206.29504-92.544 206.29504-206.29504 0-11.311104 9.168896-20.48 20.48-20.48s20.48 9.168896 20.48 20.48C931.84 543.458304 906.121216 605.549568 859.420672 652.250112zM418.824192 239.93856m-51.2 0a50 50 0 1 0 102.4 0 50 50 0 1 0-102.4 0Z"  horiz-adv-x="1024" />

    
    <glyph glyph-name="jiahao" unicode="&#58976;" d="M512-62.017c-119.648 0-232.129 46.368-316.737 130.56C110.623 152.798 64 264.799 64 383.998c0 119.169 46.624 231.2 131.232 315.425 84.608 84.191 197.089 130.56 316.737 130.56s232.129-46.369 316.704-130.56c84.672-84.225 131.263-196.256 131.263-315.392 0.033-119.2-46.591-231.233-131.263-315.455C744.13-15.616 631.648-62.017 512-62.017z m0 828.034c-102.624 0-199.072-39.744-271.583-111.937C167.937 581.952 128 486.016 128 384s39.903-197.952 112.384-270.047c72.512-72.192 168.96-111.937 271.583-111.937 102.593 0 199.072 39.744 271.584 111.937 72.48 72.16 112.416 168.063 112.384 270.08 0 102.016-39.904 197.919-112.384 270.016C711.07 726.24 614.593 766.017 512 766.017zM736 416H544V608c0 17.664-14.335 32-32 32s-32-14.336-32-32v-192H288c-17.664 0-32-14.337-32-32.002s14.336-32 32-32h192v-192c0-17.696 14.337-32.001 32.002-32.001s32 14.303 32 32V352h192c17.696 0 32.001 14.336 32.001 32.001s-14.306 32-32.002 32z"  horiz-adv-x="1024" />

    
    <glyph glyph-name="dian1" unicode="&#58888;" d="M512 576a192.064 192.064 0 0 0 0-384 192 192 0 0 0 0 384z"  horiz-adv-x="1024" />

    
    <glyph glyph-name="jiahao1" unicode="&#58902;" d="M512 896c-285.257143 0-512-226.742857-512-512s226.742857-512 512-512 512 226.742857 512 512-226.742857 512-512 512z m0-950.857143c-241.371429 0-438.857143 197.485714-438.857143 438.857143s197.485714 438.857143 438.857143 438.857143 438.857143-197.485714 438.857143-438.857143-197.485714-438.857143-438.857143-438.857143zM731.428571 420.571429h-182.857142v182.857142c0 21.942857-14.628571 36.571429-36.571429 36.571429s-36.571429-14.628571-36.571429-36.571429v-182.857142h-182.857142c-21.942857 0-36.571429-14.628571-36.571429-36.571429s14.628571-36.571429 36.571429-36.571429h182.857142v-182.857142c0-21.942857 14.628571-36.571429 36.571429-36.571429s36.571429 14.628571 36.571429 36.571429v182.857142h182.857142c21.942857 0 36.571429 14.628571 36.571429 36.571429s-14.628571 36.571429-36.571429 36.571429z"  horiz-adv-x="1024" />

    
    <glyph glyph-name="dian2" unicode="&#60446;" d="M512 272a112 112 0 1 1 0 224 112 112 0 0 1 0-224z"  horiz-adv-x="1024" />

    
    <glyph glyph-name="dian3" unicode="&#59301;" d="M512 384m-160 0a160 160 0 1 1 320 0 160 160 0 1 1-320 0Z"  horiz-adv-x="1024" />

    
    <glyph glyph-name="elipsis-h" unicode="&#58926;" d="M768 298.666667a85.333333 85.333333 0 1 0 0 170.666666 85.333333 85.333333 0 0 0 0-170.666666zM256 298.666667a85.333333 85.333333 0 1 0 0 170.666666 85.333333 85.333333 0 0 0 0-170.666666z m256 0a85.333333 85.333333 0 1 0 0 170.666666 85.333333 85.333333 0 0 0 0-170.666666z"  horiz-adv-x="1024" />

    
    <glyph glyph-name="weibo1" unicode="&#58982;" d="M851.4 305.807c-22.196 66.233-90.385 90.422-105.912 91.863-15.523 1.442-29.593 9.94-19.295 27.505 10.302 17.566 29.304 68.684-7.248 104.681-36.564 36.14-116.512 22.462-173.094-0.866-56.434-23.327-53.39-7.055-51.65 8.925 1.89 16.848 32.355 111.02-60.791 122.395C311.395 675.14 154.85 525.246 99.572 438.85 16 308.393 29.208 220.127 29.208 220.127h0.58c10.009-121.819 190.787-218.869 412.328-218.869 190.5 0 350.961 71.853 398.402 169.478 0 0 0.143 0.433 0.575 1.156 4.938 10.506 8.71 21.168 11.035 32.254 6.668 26.205 11.755 64.215-0.728 101.66z m-436.7-251.27c-157.71 0-285.674 84.095-285.674 187.768 0 103.671 127.82 187.76 285.674 187.76 157.705 0 285.673-84.089 285.673-187.76 0-103.815-127.968-187.768-285.673-187.768zM803.096 470.673c2.896-1.298 5.945-1.869 8.994-1.869 8.993 0 17.7 5.328 21.323 14.112 5.95 13.964 8.993 28.793 8.993 44.205 0 62.488-51.208 113.321-114.181 113.321-15.379 0-30.32-3.022-44.396-8.926-11.755-4.896-17.263-18.432-12.335-30.24 4.933-11.662 18.572-17.134 30.465-12.238 8.419 3.46 17.268 5.33 26.41 5.33 37.431 0 67.752-30.241 67.752-67.247 0-9.068-1.735-17.857-5.369-26.202a22.832 22.832 0 0 1 12.335-30.236l0.01-0.01zM726.922 781.843c-25.969 0-51.65-3.744-76.315-10.942-18.423-5.472-28.868-24.622-23.5-42.91 5.509-18.29 24.804-28.657 43.237-23.329a201.888 201.888 0 0 0 56.578 8.064c109.253 0 198.189-88.271 198.189-196.696 0-19.436-2.905-38.729-8.419-57.16-5.508-18.289 4.79-37.588 23.212-43.053 3.342-1.014 6.817-1.442 10.159-1.442 14.943 0 28.725 9.648 33.37 24.48 7.547 24.906 11.462 50.826 11.462 77.175-0.143 146.588-120.278 265.813-267.973 265.813zM388.294 361.53c-84.151 0-152.34-59.178-152.34-132.334 0-73.141 68.189-132.328 152.34-132.328 84.148 0 152.337 59.182 152.337 132.328 0 73.15-68.19 132.334-152.337 132.334zM338.53 143.237c-29.454 0-53.39 23.755-53.39 52.987 0 29.228 23.941 52.989 53.39 52.989 29.453 0 53.39-23.76 53.39-52.989 0-29.227-23.937-52.987-53.39-52.987z m99.82 95.465c-6.382-11.086-19.296-15.696-28.726-10.219-9.43 5.323-11.75 18.717-5.37 29.803 6.386 11.09 19.297 15.7 28.725 10.224 9.43-5.472 11.755-18.864 5.37-29.808z"  horiz-adv-x="1024" />

    
    <glyph glyph-name="shouji" unicode="&#58886;" d="M798 896H226c-35.3 0-64-28.7-64-64v-896c0-35.3 28.7-64 64-64h572c35.3 0 64 28.7 64 64V832c0 35.3-28.7 64-64 64z m0-928c0-17.6-14.4-32-32-32H258c-17.6 0-32 14.4-32 32V122.2h572V-32zM226 186.2V800c0 17.6 14.4 32 32 32h508c17.6 0 32-14.4 32-32v-613.8H226zM457 26.6a55 55 0 1 1 110 0 55 55 0 1 1-110 0z"  horiz-adv-x="1024" />

    
    <glyph glyph-name="add" unicode="&#58908;" d="M453.12 826.368c-119.296-19.456-218.624-76.288-290.816-166.4-40.448-50.176-67.584-104.96-83.968-168.448-11.264-43.52-12.288-56.32-10.24-122.88 2.56-81.92 10.752-116.224 42.496-180.224 45.056-91.648 127.488-171.008 220.16-211.968 83.456-36.864 199.168-46.08 291.328-23.552 125.952 31.232 234.496 120.32 291.84 238.592 34.816 71.68 45.056 123.392 41.984 207.872-3.072 80.384-10.752 112.128-41.984 177.152-56.32 116.736-164.864 206.336-289.28 238.08-42.496 10.752-136.704 16.896-171.52 11.776z m152.576-73.216c133.632-34.304 232.96-130.56 275.456-266.752 17.408-55.296 17.408-150.016 0-204.8-38.912-124.928-124.928-215.552-247.296-260.096-34.816-12.8-43.008-13.824-121.856-13.824s-87.04 1.024-122.368 13.824c-99.328 36.352-176.64 104.96-220.672 195.584-54.784 113.152-54.784 220.672 0 333.312 49.152 101.888 135.68 172.544 248.32 202.24 50.176 13.312 136.704 13.312 188.416 0.512zM492.544 631.808c-11.264-7.68-11.264-10.24-11.264-112.64V414.72H377.344c-94.72 0-104.96-1.024-112.64-9.216-10.752-11.776-11.264-26.112-0.512-40.96 7.68-11.264 10.24-11.264 112.128-11.264h104.96l1.024-105.984 1.536-105.984 14.336-8.192c12.288-6.656 15.36-6.656 28.16 0l13.824 8.192 1.536 105.984 1.024 105.984 105.984 1.024 105.984 1.536 8.192 14.336c6.656 12.288 6.656 15.36 0 28.16l-8.192 13.824-105.984 1.536-105.984 1.024V519.68c0 101.888 0 104.448-11.264 112.128C525.312 636.416 516.608 640 512 640c-4.608 0-13.312-3.584-19.456-8.192z"  horiz-adv-x="1024" />

    
    <glyph glyph-name="shouxieban-regular" unicode="&#58909;" d="M583.68 640l-85.376-85.333333H170.666667v-426.666667h682.666666V487.424l83.754667 83.626667c1.024-5.290667 1.578667-10.752 1.578667-16.384v-426.666667a85.333333 85.333333 0 0 0-85.333334-85.333333H170.666667a85.333333 85.333333 0 0 0-85.333334 85.333333V554.666667a85.333333 85.333333 0 0 0 85.333334 85.333333h413.013333z m358.016 131.029333a85.333333 85.333333 0 0 0 0-120.661333L484.821333 193.493333l-86.485333-15.274666a42.666667 42.666667 0 0 0-49.450667 49.450666l15.274667 86.485334 366.336 366.378666L851.2 559.786667l60.330667 60.373333-120.661334 120.661333 30.165334 30.165334a85.333333 85.333333 0 0 0 120.661333 0z"  horiz-adv-x="1024" />

    
    <glyph glyph-name="hetongguanli" unicode="&#58998;" d="M803.75 708.13h-591a34 34 0 0 1-34-34v-659a34 34 0 0 1 34-34h591a34 34 0 0 1 34 34v659a34 34 0 0 1-34 34zM281.59 576.29a36.86 36.86 0 0 0 26.16 10.84h401a37 37 0 0 0 0-74h-401a37 37 0 0 0-26.16 63.16z m0-154a36.86 36.86 0 0 0 26.16 10.84h280.5a37 37 0 0 0 0-74h-280.5a37 37 0 0 0-26.16 63.16z m166.76-217.16h-147.7c-16.51 0-29.9 16.57-29.9 37a41.7 41.7 0 0 0 8.76 26.16c5.41 6.7 12.88 10.84 21.14 10.84h147.7c16.51 0 29.9-16.57 29.9-37a45.15 45.15 0 0 0-0.35-5.63 40.51 40.51 0 0 0-8.41-20.5 31.25 31.25 0 0 0-5.18-5.11 25.61 25.61 0 0 0-15.96-5.76zM838.66 146.52a144.16 144.16 0 0 1-0.91 15.63c-0.18 1.74-0.39 3.48-0.61 5.21l0.61 0.47v125.9a11.51 11.51 0 0 1-8.88 0.55L774.77 273a159.81 159.81 0 0 1-36.71 20.84l-8.26 56.36a10.52 10.52 0 0 1-10.65 8.93h-86.9a10.53 10.53 0 0 1-10.65-8.93l-8.26-56.34A168 168 0 0 1 576.62 273l-54.09 21.26a10.72 10.72 0 0 1-13.26-4.68L477.9 236.5 465.81 216a10.32 10.32 0 0 1-1.5-5.18 10.43 10.43 0 0 1 4.11-8.42l45.84-35.08a164.85 164.85 0 0 1-1.52-20.84 166.71 166.71 0 0 1 1.52-20.83l-45.84-35.07a10.57 10.57 0 0 1-2.61-13.58l43.46-73.56c2.61-4.68 8.47-6.38 13.26-4.68L576.62 20a159.72 159.72 0 0 1 36.72-20.84l2.66-18.03h119.41l2.65 18.07a167.32 167.32 0 0 1 36.71 20.8l54.1-21.27a11 11 0 0 1 4.27-0.73 33.8 33.8 0 0 1 4.61 17.09V125.22l-0.61 0.47c0.22 1.73 0.43 3.47 0.61 5.21a144.28 144.28 0 0 1 0.91 15.62z m-163-74.4c-41.93 0-76 33.39-76 74.41s34.11 74.42 76 74.42 76-33.39 76-74.42-34.02-74.41-75.96-74.41zM735.41-18.87l-5.61-38.27a10.52 10.52 0 0 0-10.65-8.93h-86.9a10.52 10.52 0 0 0-10.65 8.93l-5.6 38.27zM883 202.44l-45.23-34.61v125.9a10.07 10.07 0 0 0 4.38-4.13l43.44-73.6a10.56 10.56 0 0 0-2.59-13.56zM885.59 77l-43.46-73.56a10.56 10.56 0 0 0-9-5.41 33.8 33.8 0 0 1 4.61 17.09v110.1l45.26-34.6a10.57 10.57 0 0 0 2.59-13.62z"  horiz-adv-x="1024" />

    
    <glyph glyph-name="lianxiren" unicode="&#58999;" d="M805.84 708.13h-569a34 34 0 0 1-34-34v-659a34 34 0 0 1 34-34h569a34 34 0 0 1 34 34v659a34 34 0 0 1-34 34z m-64-553.74H362.8c-20.52 0-20.52 42-2.22 51 1 0 42.51 33.37 69.05 48.22 27.22 15.28 68.35 38.4 68.53 50.66l0.11 11.65c-26 25.66-40.33 60.56-40.33 98.92 0 59.29 11.1 120 93.32 120s93.17-60.67 93.17-119.92c0-38.4-14.34-73.45-40.21-99v-11.86c0.26-12.09 41.46-35.24 68.54-50.52 29.69-16.71 47.49-28.68 69.07-48.15s21.58-51 0.03-51zM202.84 571.87v-74h-41.45a37 37 0 0 0 0 74zM304.38 534.87a37 37 0 0 0-37-37h-64.54v74h64.54a37 37 0 0 0 37-37zM202.84 388.94v-74h-41.45a37 37 0 0 0 0 74zM304.38 351.94a37 37 0 0 0-37-37h-64.54v74h64.54a37 37 0 0 0 37-37zM202.84 206v-74h-41.45a37 37 0 0 0 0 74zM304.38 169a37 37 0 0 0-37-37h-64.54v74h64.54a37 37 0 0 0 37-37z"  horiz-adv-x="1024" />

    
    <glyph glyph-name="nidinghetong" unicode="&#59001;" d="M789 732.18H198a34 34 0 0 1-34-34v-659a34 34 0 0 1 34-34h591a34 34 0 0 1 34 34v659a34 34 0 0 1-34 34zM266.81 600.34A36.86 36.86 0 0 0 293 611.18h401a37 37 0 0 0 0-74H293a37 37 0 0 0-26.16 63.16z m0-154A36.86 36.86 0 0 0 293 457.18h280.5a37 37 0 0 0 0-74H293a37 37 0 0 0-26.16 63.16zM454.71 240c-5.41-6.7-12.88-10.84-21.14-10.84h-147.7c-16.51 0-29.9 16.57-29.9 37a41.7 41.7 0 0 0 8.76 26.16c5.41 6.7 12.88 10.84 21.14 10.84h147.7c16.51 0 29.9-16.57 29.9-37a41.7 41.7 0 0 0-8.76-26.16zM679.61 304.22L514.8 139.41l-30.25-30.25a21.26 21.26 0 0 1-6.24-15.27l0.65-59.5a21.25 21.25 0 0 1 21.05-21l59.52-0.64a21.22 21.22 0 0 1 15.27 6.21l61.2 61.1 36.4 36.4 22.95 22.95 59 59 3.37 3.37L794 238.06l20 20-90.26 90.23zM869.3 313.42l-40.3-40.3-6 6V389.84l46.3-46.34a21.28 21.28 0 0 0 0-30.08zM823 389.84v-110.69l-84.21 84.22 40.3 40.3a21.26 21.26 0 0 0 30.08 0z"  horiz-adv-x="1024" />

    
    <glyph glyph-name="jizhongguanli" unicode="&#59002;" d="M794.85 692.27c-89.88 0-295.77 63.56-297.84 64.2a24.64 24.64 0 0 1-14.56 0c-2.07-0.64-208-64.2-297.84-64.2A24.61 24.61 0 0 1 160 667.66v-348.31c0-152.73 205.6-305.1 297.14-342.47 13.84-5.66 25.07-8.68 32.59-8.68 9.72 0 26.5 5.9 47.49 16.53 6.73 3.4 13.89 7.3 21.39 11.64l1.07 0.62c40 23.29 89.53 59.21 134.56 102 8.53 8.11 16.9 16.46 25 25 7.7 8.12 15.17 16.43 22.32 24.9 39.11 46.3 68.92 97.2 76.18 147.31a159.4 159.4 0 0 1 1.71 23.09V667.66a24.61 24.61 0 0 1-24.6 24.61zM361.89 476.68c0-60.2 41.84-110.81 97.95-124.3l-1.11-200.09a30.88 30.88 0 0 1 9-22 30.48 30.48 0 0 1 21.7-9h0.29a31.07 31.07 0 0 1 31.1 31v85.65h35.38a31.11 31.11 0 0 1 0 62.22h-35.4v52.51c55.52 13.92 96.77 64.24 96.77 124a127.84 127.84 0 0 1-255.68 0z m203.71 0a75.87 75.87 0 1 0-75.87 75.87 76 76 0 0 0 75.87-75.87z m0 0M723.8 350c-60.86 0-110.39-50.7-110.39-113 0-60.76 47.08-110.48 105.84-112.92 7.7 8.12 15.17 16.43 22.32 24.9 39.11 46.3 68.92 97.2 76.18 147.31C798.28 328.47 763.44 350 723.8 350z m-85.17-223.53c-42-27.41-72.13-74.53-79-129.48 40 23.29 89.53 59.21 134.56 102a138.24 138.24 0 0 0-55.56 27.48zM834.2 237c0-62.32-49.53-113-110.4-113-1.53 0-3 0-4.55 0.11 7.7 8.12 15.17 16.43 22.32 24.9 39.11 46.3 68.92 97.2 76.18 147.31A114.3 114.3 0 0 0 834.2 237zM888.9-12.86H558.71c0.24 3.31 0.56 6.6 1 9.85 40 23.29 89.53 59.21 134.56 102a130.23 130.23 0 0 1 29.56-3.38c32.3 0 61.6 11.79 85.09 30.84 44.69-29.01 75.72-80.08 79.98-139.31z"  horiz-adv-x="1024" />

    
    <glyph glyph-name="qianshuyiyuan" unicode="&#59003;" d="M806.5 732.18h-591a34 34 0 0 1-34-34v-659a34 34 0 0 1 34-34h591a34 34 0 0 1 34 34v659a34 34 0 0 1-34 34zM284.34 600.34a36.86 36.86 0 0 0 26.16 10.84h401a37 37 0 0 0 0-74h-401a37 37 0 0 0-26.16 63.16z m0-154a36.86 36.86 0 0 0 26.16 10.84H591a37 37 0 0 0 0-74H310.5a37 37 0 0 0-26.16 63.16zM472.24 240c-5.41-6.7-12.88-10.84-21.14-10.84H303.4c-16.51 0-29.9 16.57-29.9 37a41.7 41.7 0 0 0 8.76 26.16c5.41 6.7 12.88 10.84 21.14 10.84h147.7c16.51 0 29.9-16.57 29.9-37a41.7 41.7 0 0 0-8.76-26.16zM891.57 122.41c0.27-70.9-57.24-128.9-128.2-129.23H592.62a36.47 36.47 0 0 0-26.87 12H806.5a34 34 0 0 1 34 34v186.4a129.5 129.5 0 0 0 51.07-103.17zM840.5 225.58v-186.4a34 34 0 0 0-34-34H565.75a36.47 36.47 0 0 0 26.87 61h170.77c30.69 0 55.66 25.23 55.66 56.24s-25 56.28-55.66 56.28H626l18-18.1a35.88 35.88 0 1 0-50.75-50.74l-79.76 80.44a36.13 36.13 0 0 0 0 50.76l79.78 80.35a35.88 35.88 0 1 0 50.69-50.79l-18.78-18.92h138.11a127 127 0 0 0 77.21-26.12z"  horiz-adv-x="1024" />

    
    <glyph glyph-name="jiahao2" unicode="&#58899;" d="M511.3 749.3c49.4 0 97.3-9.7 142.3-28.7 43.5-18.4 82.7-44.8 116.3-78.4s60-72.7 78.4-116.3c19-45 28.7-92.9 28.7-142.3s-9.7-97.3-28.7-142.3c-18.4-43.5-44.8-82.7-78.4-116.3s-72.7-60-116.3-78.4c-45-19-92.9-28.7-142.3-28.7S414 27.6 369 46.6c-43.5 18.4-82.7 44.8-116.3 78.4s-60 72.7-78.4 116.3c-19 45-28.7 92.9-28.7 142.3s9.7 97.3 28.7 142.3c18.4 43.5 44.8 82.7 78.4 116.3s72.7 60 116.3 78.4c45 19.1 92.9 28.7 142.3 28.7m0 82C264 831.3 63.6 630.9 63.6 383.6S264-64.1 511.3-64.1 959 136.4 959 383.6 758.6 831.3 511.3 831.3zM697.4 424.3H552V569.7c0 22.4-18.2 40.6-40.6 40.6-22.4 0-40.6-18.2-40.6-40.6v-145.4H325.3c-22.4 0-40.6-18.2-40.6-40.6 0-22.4 18.2-40.6 40.6-40.6h145.4v-145.4c0-22.4 18.2-40.6 40.6-40.6 22.4 0 40.6 18.2 40.6 40.6V343h145.4c22.4 0 40.6 18.2 40.6 40.6 0.1 22.5-18.1 40.7-40.5 40.7z"  horiz-adv-x="1024" />

    
    <glyph glyph-name="arrow-down" unicode="&#58981;" d="M512 181.333333c-8.533333 0-17.066667 2.133333-23.466667 8.533334l-341.333333 341.333333c-12.8 12.8-12.8 32 0 44.8 12.8 12.8 32 12.8 44.8 0l320-317.866667 317.866667 320c12.8 12.8 32 12.8 44.8 0 12.8-12.8 12.8-32 0-44.8L533.333333 192c-4.266667-8.533333-12.8-10.666667-21.333333-10.666667z"  horiz-adv-x="1024" />

    
    <glyph glyph-name="close" unicode="&#58984;" d="M556.8 384L832 659.2c12.8 12.8 12.8 32 0 44.8-12.8 12.8-32 12.8-44.8 0L512 428.8l-275.2 277.333333c-12.8 12.8-32 12.8-44.8 0-12.8-12.8-12.8-32 0-44.8l275.2-277.333333-277.333333-275.2c-12.8-12.8-12.8-32 0-44.8 6.4-6.4 14.933333-8.533333 23.466666-8.533333s17.066667 2.133333 23.466667 8.533333L512 339.2 787.2 64c6.4-6.4 14.933333-8.533333 23.466667-8.533333s17.066667 2.133333 23.466666 8.533333c12.8 12.8 12.8 32 0 44.8L556.8 384z"  horiz-adv-x="1024" />

    
    <glyph glyph-name="direction-down" unicode="&#58987;" d="M898.133333 384c-12.8 12.8-32 12.8-44.8 2.133333L544 96V746.666667c0 17.066667-14.933333 32-32 32s-32-14.933333-32-32v-650.666667L170.666667 386.133333c-12.8 12.8-34.133333 10.666667-44.8-2.133333-12.8-12.8-10.666667-34.133333 2.133333-44.8l362.666667-341.333333c2.133333-2.133333 6.4-4.266667 8.533333-6.4 4.266667-2.133333 6.4-2.133333 10.666667-2.133334s8.533333 0 10.666666 2.133334c4.266667 2.133333 6.4 4.266667 8.533334 6.4l362.666666 341.333333c17.066667 12.8 19.2 32 6.4 44.8z"  horiz-adv-x="1024" />

    
    <glyph glyph-name="direction-right" unicode="&#58988;" d="M904.533333 373.333333c2.133333 4.266667 2.133333 6.4 2.133334 10.666667s0 8.533333-2.133334 10.666667c-2.133333 4.266667-4.266667 6.4-6.4 8.533333l-341.333333 362.666667c-12.8 12.8-32 12.8-44.8 2.133333-12.8-12.8-12.8-32-2.133333-44.8l290.133333-309.333333H149.333333c-17.066667 0-32-14.933333-32-32s14.933333-32 32-32h650.666667L509.866667 42.666667c-12.8-12.8-10.666667-34.133333 2.133333-44.8 6.4-6.4 14.933333-8.533333 21.333333-8.533334 8.533333 0 17.066667 4.266667 23.466667 10.666667l341.333333 362.666667c2.133333 2.133333 4.266667 6.4 6.4 10.666666z"  horiz-adv-x="1024" />

    
    <glyph glyph-name="direction-up" unicode="&#58989;" d="M896 428.8l-362.666667 341.333333c-2.133333 2.133333-6.4 4.266667-8.533333 6.4-4.266667 2.133333-6.4 2.133333-10.666667 2.133334s-8.533333 0-10.666666-2.133334c-4.266667-2.133333-6.4-4.266667-8.533334-6.4l-362.666666-341.333333c-12.8-12.8-12.8-32-2.133334-44.8 12.8-12.8 32-12.8 44.8-2.133333l309.333334 290.133333V21.333333c0-17.066667 14.933333-32 32-32s32 14.933333 32 32V672L853.333333 381.866667c6.4-6.4 14.933333-8.533333 21.333334-8.533334 8.533333 0 17.066667 4.266667 23.466666 10.666667 12.8 12.8 10.666667 32-2.133333 44.8z"  horiz-adv-x="1024" />

    
    <glyph glyph-name="direction-left" unicode="&#58990;" d="M874.666667 416H224L514.133333 725.333333c12.8 12.8 10.666667 34.133333-2.133333 44.8s-32 10.666667-44.8-2.133333l-341.333333-362.666667c-2.133333-2.133333-4.266667-6.4-6.4-8.533333-2.133333-4.266667-2.133333-6.4-2.133334-10.666667s0-8.533333 2.133334-10.666666c2.133333-4.266667 4.266667-6.4 6.4-8.533334l341.333333-362.666666c6.4-6.4 14.933333-10.666667 23.466667-10.666667 8.533333 0 14.933333 2.133333 21.333333 8.533333 12.8 12.8 12.8 32 2.133333 44.8L224 352H874.666667c17.066667 0 32 14.933333 32 32s-14.933333 32-32 32z"  horiz-adv-x="1024" />

    
    <glyph glyph-name="download" unicode="&#58991;" d="M896 224c-17.066667 0-32-14.933333-32-32v-128c0-6.4-4.266667-10.666667-10.666667-10.666667H170.666667c-6.4 0-10.666667 4.266667-10.666667 10.666667v128c0 17.066667-14.933333 32-32 32s-32-14.933333-32-32v-128c0-40.533333 34.133333-74.666667 74.666667-74.666667h682.666666c40.533333 0 74.666667 34.133333 74.666667 74.666667v128c0 17.066667-14.933333 32-32 32zM488.533333 168.533333c6.4-6.4 14.933333-8.533333 23.466667-8.533333s17.066667 2.133333 23.466667 8.533333l213.333333 213.333334c12.8 12.8 12.8 32 0 44.8-12.8 12.8-32 12.8-44.8 0l-157.866667-157.866667V725.333333c0 17.066667-14.933333 32-32 32s-34.133333-14.933333-34.133333-32v-456.533333L322.133333 426.666667c-12.8 12.8-32 12.8-44.8 0-12.8-12.8-12.8-32 0-44.8l211.2-213.333334z"  horiz-adv-x="1024" />

    
    <glyph glyph-name="elipsis" unicode="&#58992;" d="M192 384m-64 0a64 64 0 1 1 128 0 64 64 0 1 1-128 0ZM512 384m-64 0a64 64 0 1 1 128 0 64 64 0 1 1-128 0ZM832 384m-64 0a64 64 0 1 1 128 0 64 64 0 1 1-128 0Z"  horiz-adv-x="1024" />

    
    <glyph glyph-name="search" unicode="&#59005;" d="M945.066667-2.133333l-189.866667 189.866666c55.466667 64 87.466667 149.333333 87.466667 241.066667 0 204.8-168.533333 373.333333-373.333334 373.333333S96 631.466667 96 426.666667 264.533333 53.333333 469.333333 53.333333c91.733333 0 174.933333 34.133333 241.066667 87.466667l189.866667-189.866667c6.4-6.4 14.933333-8.533333 23.466666-8.533333s17.066667 2.133333 23.466667 8.533333c8.533333 12.8 8.533333 34.133333-2.133333 46.933334zM469.333333 117.333333C298.666667 117.333333 160 256 160 426.666667S298.666667 736 469.333333 736 778.666667 597.333333 778.666667 426.666667 640 117.333333 469.333333 117.333333z"  horiz-adv-x="1024" />

    
    <glyph glyph-name="arrow-up-filling" unicode="&#59016;" d="M541.866667 610.133333l345.6-345.6c17.066667-17.066667 17.066667-42.666667 0-59.733333-8.533333-8.533333-19.2-12.8-29.866667-12.8H168.533333c-23.466667 0-42.666667 19.2-42.666666 42.666667 0 10.666667 4.266667 21.333333 12.8 29.866666l343.466666 345.6c17.066667 17.066667 42.666667 17.066667 59.733334 0z"  horiz-adv-x="1024" />

    
    <glyph glyph-name="arrow-down-filling" unicode="&#59017;" d="M482.133333 157.866667L136.533333 503.466667c-17.066667 17.066667-17.066667 42.666667 0 59.733333 8.533333 8.533333 19.2 12.8 29.866667 12.8h689.066667c23.466667 0 42.666667-19.2 42.666666-42.666667 0-10.666667-4.266667-21.333333-12.8-29.866666L541.866667 157.866667c-17.066667-17.066667-42.666667-17.066667-59.733334 0z"  horiz-adv-x="1024" />

    
    <glyph glyph-name="arrow-left-filling" unicode="&#59018;" d="M268.8 416L633.6 746.666667c17.066667 14.933333 44.8 14.933333 59.733333-2.133334 6.4-8.533333 10.666667-19.2 10.666667-29.866666v-661.333334c0-23.466667-19.2-42.666667-42.666667-42.666666-10.666667 0-21.333333 4.266667-27.733333 10.666666l-362.666667 330.666667c-17.066667 14.933333-19.2 42.666667-2.133333 59.733333-2.133333 2.133333 0 2.133333 0 4.266667z"  horiz-adv-x="1024" />

    
    <glyph glyph-name="arrow-right-filling" unicode="&#59019;" d="M755.2 352L390.4 21.333333c-17.066667-14.933333-44.8-14.933333-59.733333 2.133334-6.4 8.533333-10.666667 19.2-10.666667 29.866666v661.333334c0 23.466667 19.2 42.666667 42.666667 42.666666 10.666667 0 21.333333-4.266667 27.733333-10.666666l362.666667-330.666667c17.066667-14.933333 19.2-42.666667 2.133333-59.733333 2.133333-2.133333 0-2.133333 0-4.266667z"  horiz-adv-x="1024" />

    
    <glyph glyph-name="shouji1" unicode="&#58969;" d="M777.9 833c47 0 85.1-38.1 85.1-85.1v-726.8c0-47-38.1-85.1-85.1-85.1H244.1c-47 0-85.1 38.1-85.1 85.1V747.9c0 47 38.1 85.1 85.1 85.1h533.8z m32.184-692.3H214.215v-94.3c0-26.409 21.195-47.867 47.502-48.294l0.799-0.006h499.269c26.409 0 47.867 21.194 48.293 47.501l0.007 0.799-0.001 94.3zM511 113.1c21.6 0 39.111-17.506 39.111-39.1s-17.51-39.1-39.111-39.1c-21.6 0-39.111 17.506-39.111 39.1s17.51 39.1 39.111 39.1z m250.785 657.8h-499.27c-26.408 0-47.866-21.194-48.293-47.501l-0.006-0.799-0.001-519.8h595.869l0.001 519.8c0 26.675-21.625 48.3-48.3 48.3z"  horiz-adv-x="1024" />

    
    <glyph glyph-name="xiaolian" unicode="&#58977;" d="M503 809c246.319 0 446-199.681 446-446S749.319-83 503-83 57 116.681 57 363 256.681 809 503 809z m0-59.773c-213.307 0-386.227-172.92-386.227-386.227S289.693-23.227 503-23.227 889.227 149.693 889.227 363 716.307 749.227 503 749.227z m216.103-460.779v-0.164c0-113.637-92.12-205.758-205.758-205.758-113.636 0-205.757 92.12-205.757 205.758v0.164h411.515zM376.557 535.423c38.09 0 68.969-30.879 68.969-68.97 0-38.09-30.879-68.968-68.97-68.968-38.09 0-68.968 30.878-68.968 68.969 0 38.09 30.878 68.969 68.969 68.969z m273.577 0c38.09 0 68.97-30.879 68.97-68.97 0-38.09-30.88-68.968-68.97-68.968s-68.97 30.878-68.97 68.969c0 38.09 30.88 68.969 68.97 68.969z"  horiz-adv-x="1024" />

    
    <glyph glyph-name="yuyin" unicode="&#59428;" d="M512 832c247.424 0 448-200.576 448-448S759.424-64 512-64 64 136.576 64 384 264.576 832 512 832z m0-68c-209.868 0-380-170.132-380-380s170.132-380 380-380 380 170.132 380 380-170.132 380-380 380z m52.766-130.24c12.33 12.32 32.298 12.32 44.625 0.005l0.018-0.019 4.026-4.133c131.545-137.211 131.4-354.035-0.317-491.07l-4.073-4.17-0.342-0.348c-5.74-5.758-13.6-9.025-21.802-9.025a30.85 30.85 0 0 0-22.19 9.419c-11.208 11.926-11.208 30.444-0.044 42.324l0.097 0.1 3.343 3.404c109.19 113.003 109.2 292.426 0.033 405.442l-3.376 3.438-0.365 0.372c-11.943 12.356-11.821 32.055 0.367 44.261z m-115.333-89.643c11.818 10.51 29.644 10.51 41.463 0.003l0.462-0.418 0.096-0.1 2.53-2.652c82.68-88.053 82.688-225.361 0.026-313.424l-2.672-2.799-0.124-0.11-0.358-0.316c-11.864-10.301-29.51-10.302-41.376-0.003l-0.533 0.472-0.157 0.171-0.325 0.36c-10.61 11.942-10.502 30.015 0.325 41.832l0.132 0.138 1.892 1.933c61.805 64.168 61.812 165.846 0.019 230.022l-1.998 2.04-0.083 0.092-0.318 0.361c-10.4 11.99-10.294 29.879 0.318 41.747l0.154 0.172 0.17 0.157z m-128.057-125.89c13.666 13.46 34.104 17.488 51.906 10.157C391.264 420.98 403 403.451 403 384c0-19.452-11.736-36.98-29.718-44.385a47.973 47.973 0 0 0-51.93 10.182l-0.413 0.412-0.425 0.427A47.64 47.64 0 0 0 306.889 384a47.658 47.658 0 0 0 13.675 33.413l0.4 0.403z"  horiz-adv-x="1024" />

    
    <glyph glyph-name="elipsis1" unicode="&#59126;" d="M268 384m-56 0a56 56 0 1 1 112 0 56 56 0 1 1-112 0ZM512 384m-56 0a56 56 0 1 1 112 0 56 56 0 1 1-112 0ZM756 384m-56 0a56 56 0 1 1 112 0 56 56 0 1 1-112 0Z"  horiz-adv-x="1024" />

    
    <glyph glyph-name="qiandaizi" unicode="&#59064;" d="M434.4 589.3S329.1 704.1 329.7 755.8c0.6 52 32.7 31.6 43.8 20.1 13-13.5 40.2-31.6 60.9 3 20.7 34.7 47.9 38.8 79.1 6.7 21.3-21.9 61.9 19.2 80.3 24.3 21.9 6.1 57.8-15.8 67.5-32.3s27.4 15.2 37.7 14.6c10.3-0.6 26.8-21.3 0-63.3S584.7 592.1 584.7 592.1l-150.3-2.8zM431.8 583.2l-1.9 2C425.6 590 323 702.4 323.7 755.9c0.2 21.3 5.8 34.3 16.4 38.5 13.8 5.5 30.3-6.4 37.8-14.3 4.8-5 17.4-16.4 30.3-15 7.8 0.9 14.8 6.6 21 16.9 11.3 19 24.7 29.5 39.6 31.3 15.6 1.8 32.1-6.1 49.1-23.4 10.6-10.9 29.4-0.3 51.1 13.5 9 5.7 16.8 10.7 23.2 12.5 25 6.9 63.5-16.6 74.4-35 0.7-1.2 1.3-1.7 1.6-1.7 2.4-0.4 9 5.5 12.5 8.7 6.3 5.7 12.2 11 18.8 10.6 6.5-0.4 12.9-5.1 16.6-12.4 4.4-8.6 8.7-28-11.8-60.2-26.8-42-111.5-133.9-115.1-137.8l-1.8-1.9-155.6-3z m-84.1 200.4c-1.1 0-2.2-0.2-3.1-0.6-5.5-2.2-8.6-11.9-8.7-27.3-0.2-19.8 17.4-54 50.9-98.9 21.8-29.2 43.9-54.2 50.3-61.3l144.9 2.7c12.5 13.6 87.9 96.4 112 134.2 18 28.2 13.9 43.1 11.3 48.1-2.1 4.1-5 5.7-6.5 5.8-1.8-0.2-6.9-4.8-9.9-7.5-7.1-6.4-14.4-12.9-22.5-11.7-2.9 0.4-6.9 2.1-10.2 7.6-8.7 14.6-41.9 34.7-60.7 29.5-4.7-1.3-12.1-6-19.9-11-20.3-12.9-48.1-30.6-66.4-11.7-14.1 14.5-27.2 21.2-38.9 19.8-11-1.3-21.3-9.8-30.6-25.4-8.2-13.8-18.3-21.4-30.1-22.8-17.6-2-32.9 10.8-40.4 18.6-5.3 5.4-14.7 11.9-21.5 11.9zM412.5 583.9s-132-81.8-191.7-257.7 11-287.8 180.7-321.9 320.1 2.4 378.5 61.5c58.4 59 59.6 138.7 12.8 244C746 415 676.6 531.8 585.9 583.9H412.5zM531.3-14.9c-42.8 0-86.9 4.4-130.9 13.3-87.5 17.6-148.3 54.9-180.7 111-32.9 57.1-34.5 130.7-4.6 218.8 31.2 91.9 82.2 157.9 119.6 197 40.5 42.5 73.3 63 74.7 63.9l1.5 0.9h176.8l1.4-0.8c42.2-24.2 83.2-64.2 121.8-118.9 30.9-43.8 60.4-96.9 87.6-158 24.4-54.8 35.4-101.3 33.6-142.1-1.8-42.6-17.4-78.2-47.6-108.7-30.8-31.1-84.3-55-150.7-67.3-32.8-6.1-67.2-9.1-102.5-9.1z m-117 592.7c-6.7-4.4-36.3-24.7-71.2-61.3-36.4-38.2-86.2-102.6-116.5-192.2-28.7-84.6-27.5-154.8 3.7-208.8 30.5-52.9 88.6-88.3 172.5-105.2 171.9-34.5 317.7 4 373 59.8 55.1 55.7 58.8 131.1 11.5 237.3-41.8 93.9-110.8 216.7-203 270.5h-170z m1.4 0.9zM447.2 553.7s-117.4-75.6-170.4-238.1 9.7-266 160.7-297.5S722 20.3 774 74.9c51.9 54.6 53 128.2 11.4 225.5-41.7 97.3-103.3 205.2-184 253.3H447.2zM617.6 621.3c0 8-6.6 14.6-14.6 14.6H394.2c-8 0-14.6-6.6-14.6-14.6v-11c0-3.6 1.4-7 3.6-9.5-4.3-3.1-6.9-8.3-6.7-14l0.9-17.6c0.4-9 8.1-16 17.1-15.5l205 10c9 0.4 16 8.1 15.5 17.1l-0.9 17.6c0 0.8-0.2 1.5-0.3 2.3 2.3 2.6 3.7 5.9 3.7 9.6v11zM393.7 547.6c-11.9 0-21.8 9.4-22.4 21.3l-0.9 17.6c-0.3 5.6 1.5 10.9 5 15.2-1.2 2.7-1.9 5.6-1.9 8.6v11c0 11.4 9.3 20.7 20.7 20.7H603c11.4 0 20.7-9.3 20.7-20.7v-11c0-4-1.2-7.9-3.4-11.3v-0.3l0.9-17.6c0.3-6-1.8-11.7-5.8-16.2-4-4.4-9.5-7.1-15.5-7.3l-205-10h-1.2z m0.5 82.3c-4.7 0-8.5-3.8-8.5-8.5v-11c0-2 0.7-4 2.1-5.5l4.3-5-5.3-3.9c-2.8-2.1-4.4-5.3-4.2-8.8l0.9-17.6c0.3-5.7 5.1-10 10.8-9.8l205 10c5.7 0.3 10 5.1 9.8 10.8l-0.9 17.6c0 0.4-0.1 0.9-0.2 1.4l-0.6 2.9 2 2.2c1.4 1.6 2.1 3.6 2.1 5.6v11c0 4.7-3.8 8.5-8.5 8.5H394.2zM585.3 559.2c-45.5 50.6-199.9 35.8-201.5 35.6l-1.2 12.1c6.6 0.7 162.2 15.5 211.7-39.6l-9-8.1zM633.4 745.3s18.4-48.1-28.9-78-29.4-5.6-8.8 13.9c20.6 19.5 12.7 49.1 18.1 64.4 5.4 15.3 27.3 31.9 19.6-0.3zM530.9 104.1h-32.3v42.6c-42 0-76.8 5.9-104.5 17.7v37.9c27.6-15.5 62.5-23.8 104.5-24.9V278.5c-44.4 14.2-73.2 27.5-86.5 39.8-13.3 12.3-19.9 26.9-19.9 43.8 0 19.6 9.9 36.7 29.7 51.2 19.8 14.5 45.4 23.2 76.7 26.1v36.8h32.3v-36c40.4-1 67.8-4.9 82.4-11.7v-37c-21.2 11.1-48.6 17-82.4 17.9v-104.2c41.6-13 70.3-25.9 86-38.8 15.7-12.9 23.5-27.4 23.5-43.5 0-20.3-9.9-36.9-29.6-49.9-19.7-13-46.3-21.2-79.9-24.6v-44.3z m-32.3 304.2c-35.4-5.3-53.1-19.3-53.1-42.1 0-10.9 3.8-20 11.3-27.2 7.6-7.2 21.5-14.6 41.7-22.3v91.6zM530.9 179c37.4 5.5 56.1 19.2 56.1 40.9 0 18.2-18.7 34.2-56.1 47.7V179zM535.9 99.1h-42.3v42.7c-40.3 0.5-74.4 6.5-101.4 18.1l-3 1.3V211l7.4-4.2c25.7-14.4 58.3-22.5 97-24.1v92.1c-43.6 14.2-71.4 27.2-85 39.8-14.3 13.3-21.5 29.2-21.5 47.4 0 21.2 10.7 39.8 31.8 55.3 19.5 14.3 44.6 23.2 74.7 26.6v37.3h42.3V445c38.7-1.2 64.8-5.2 79.5-12l2.9-1.3v-48.4l-7.3 3.8c-19.3 10.1-44.6 15.9-75.1 17.2V309c40.7-12.9 68.3-25.5 84.1-38.6 16.8-13.8 25.3-29.8 25.3-47.4 0-21.9-10.7-40.1-31.8-54.1-19.4-12.8-45.5-21.2-77.6-24.9v-44.9z m-32.3 10h22.3V153l4.5 0.5c32.6 3.3 58.7 11.3 77.6 23.8 18.4 12.1 27.3 27.1 27.3 45.7 0 14.7-7.1 27.6-21.7 39.6-15.1 12.4-43.4 25.2-84.3 37.9l-3.5 1.1v113l5.1-0.1c30.6-0.8 56.5-5.8 77.2-15v25.7c-14.6 5.7-40.6 9.1-77.5 10l-4.9 0.1v35.9h-22.3v-36.4l-4.5-0.4c-30.3-2.8-55.2-11.3-74.2-25.2-18.6-13.7-27.7-29.1-27.7-47.2 0-15.5 6-28.7 18.3-40.1 12.7-11.8 41.1-24.8 84.6-38.7l3.5-1.1v-109.7l-5.1 0.1c-39 1.1-72.3 8.3-99.3 21.6v-26.3c26.4-10.7 59.9-16.1 99.5-16.1h5v-42.6z m22.3 64.1V274.9l6.7-2.4c40-14.5 59.4-31.7 59.4-52.4 0-24.5-20.3-40-60.4-45.9l-5.7-1z m10 87.3v-75.6c31 5.6 46.1 17.1 46.1 35.1 0 14.8-15.5 28.4-46.1 40.5z m-32.3 49l-6.8 2.6c-21.1 8-35.3 15.6-43.4 23.3-8.6 8.1-12.9 18.5-12.9 30.8 0 25.5 19.3 41.3 57.3 47l5.7 0.9v-104.6z m-10 92.9c-29-5.4-43.1-17.3-43.1-36.2 0-9.6 3.2-17.3 9.8-23.5 6.2-5.9 17.4-12.1 33.3-18.6v78.3z"  horiz-adv-x="1024" />

    
    <glyph glyph-name="duilian" unicode="&#59066;" d="M307.3 782.2s-21.7 55 5.9 55.2c27.5 0.2 8.8-48.1 4.3-55.2s-10.2 0-10.2 0zM312.8 776.5c-4.1 0-7.2 3.7-7.5 4.1l-0.2 0.3-0.1 0.3c-0.6 1.5-14.6 37.6-4.7 52.3 2.8 4.2 7.2 6.3 12.9 6.4h0.1c8.4 0 12.5-4.2 14.4-7.7 4.3-7.9 2.5-20.2 0.2-29.1-2.6-10.2-6.6-19.3-8.4-22.1-2.2-3.4-4.7-4.2-6.5-4.3 0-0.2-0.1-0.2-0.2-0.2z m-3.3 7c0.7-0.8 2.2-2 3.4-1.9 1 0 1.9 1.1 2.4 2 3.4 5.4 14.6 34 8 46.1-1.9 3.5-5.2 5.1-10.1 5.1-4 0-6.9-1.4-8.7-4.1-7-10.3 1.1-37.2 5-47.2zM449.9 38.5l-10 4.3c0.2 0.6 23.9 56.2 5.1 101.2-9 21.4-26.4 37.2-51.7 46.9-36.8 14.1-60 34.2-68.8 59.6-13.2 38 7.3 80.1 26.6 112.6 31.3 52.7 6.4 155.2-27.3 233.5-36 83.5-16.3 178.2-15.4 182.2l10.6-2.3c-0.2-0.9-19.8-95.4 14.8-175.6 13.8-31.9 31.7-80.6 39.2-131.5 7.1-48.2 2.9-85.9-12.5-111.8-18.1-30.5-37.4-69.8-25.7-103.5 7.7-22.3 28.7-40.1 62.5-53 28.2-10.8 47.7-28.6 57.9-52.9 20.5-49.2-4.2-107.2-5.3-109.7zM308.3 645.1m-65.3 0a65.3 65.3 0 1 1 130.6 0 65.3 65.3 0 1 1-130.6 0ZM308.3 574.3c-39 0-70.8 31.7-70.8 70.8s31.7 70.8 70.8 70.8 70.8-31.7 70.8-70.8-31.8-70.8-70.8-70.8z m0 130.6c-33 0-59.9-26.9-59.9-59.9s26.9-59.9 59.9-59.9 59.9 26.9 59.9 59.9-26.9 59.9-59.9 59.9zM364.6 481.6m-65.3 0a65.3 65.3 0 1 1 130.6 0 65.3 65.3 0 1 1-130.6 0ZM364.6 410.8c-39 0-70.8 31.7-70.8 70.8s31.7 70.8 70.8 70.8 70.8-31.7 70.8-70.8-31.8-70.8-70.8-70.8z m0 130.6c-33 0-59.9-26.9-59.9-59.9s26.9-59.9 59.9-59.9 59.9 26.9 59.9 59.9-26.9 59.9-59.9 59.9zM344 307.6m-65.3 0a65.3 65.3 0 1 1 130.6 0 65.3 65.3 0 1 1-130.6 0ZM344 236.8c-39 0-70.8 31.7-70.8 70.8s31.7 70.8 70.8 70.8 70.8-31.7 70.8-70.8-31.8-70.8-70.8-70.8z m0 130.7c-33 0-59.9-26.9-59.9-59.9s26.9-59.9 59.9-59.9 59.9 26.9 59.9 59.9-26.9 59.9-59.9 59.9zM429.9 160.4m-65.3 0a65.3 65.3 0 1 1 130.6 0 65.3 65.3 0 1 1-130.6 0ZM429.9 89.7c-39 0-70.8 31.7-70.8 70.8 0 39 31.7 70.8 70.8 70.8s70.8-31.7 70.8-70.8c0-39.1-31.8-70.8-70.8-70.8z m0 130.6c-33 0-59.9-26.9-59.9-59.9s26.9-59.9 59.9-59.9 59.9 26.9 59.9 59.9-26.9 59.9-59.9 59.9zM335.8 756h-53.4c-6 0-10.9 4.9-10.9 10.9s4.9 10.9 10.9 10.9h53.4c6 0 10.9-4.9 10.9-10.9s-4.9-10.9-10.9-10.9zM335.8 750.5h-53.4c-9 0-16.3 7.3-16.3 16.3s7.3 16.3 16.3 16.3h53.4c9 0 16.3-7.3 16.3-16.3 0-8.9-7.3-16.3-16.3-16.3z m-53.4 21.8c-3 0-5.4-2.4-5.4-5.4 0-3 2.4-5.4 5.4-5.4h53.4c3 0 5.4 2.4 5.4 5.4 0 3-2.4 5.4-5.4 5.4h-53.4zM455.4 18.2h-23.2V33c0 6.4 5.2 11.6 11.6 11.6 6.4 0 11.6-5.2 11.6-11.6v-14.8zM457.6 16H430v17c0 7.6 6.2 13.8 13.8 13.8 7.6 0 13.8-6.2 13.8-13.8v-17z m-23.2 4.4h18.8V33c0 5.2-4.2 9.4-9.4 9.4s-9.4-4.2-9.4-9.4v-12.6zM472.2-47.3s-9.6-6-29.8-6c-20.3 0-26.9 6-26.9 6l16.8 65.4h23.2l16.7-65.4zM442.2-55.5c-20.7 0-27.9 6.3-28.2 6.6l-1 0.9 17.5 68.4h26.6l17.6-68.6-1.4-0.9c-0.4-0.3-10.4-6.3-31-6.3 0-0.1 0-0.1-0.1-0.1z m-24.2 9.2c2.5-1.5 9.6-4.7 24.2-4.7h0.2c15.1 0 24.1 3.5 27.3 5l-15.9 62H434l-16-62.3zM432.2-54.4h-0.3c-1.2 0.2-2.1 1.3-1.9 2.5l7.3 54.8c0.2 1.2 1.3 2.1 2.5 1.9 1.2-0.2 2.1-1.3 1.9-2.5l-7.3-54.8c-0.1-1.1-1.1-1.9-2.2-1.9zM450-39.1c-1.2 0-2.1 0.9-2.2 2.1l-1.8 28.2c-0.1 1.2 0.9 2.2 2.1 2.3 1.2 0.1 2.2-0.9 2.3-2.1l1.8-28.2c0.1-1.2-0.9-2.2-2.1-2.3h-0.1zM277.5 658.2c-2.7 0-4.5 0.5-5.6 1.6-1.1 1.1-1.6 3-1.6 5.6s0.5 4.6 1.6 5.9c1.1 1.3 3 1.9 5.6 1.9 0.3 0 0.4 0.2 0.3 0.7-0.1 0.5-0.2 0.9-0.2 1.3 0 1.9 0.9 3.5 2.7 4.9 1.8 1.4 3.6 2.1 5.4 2.1 0.9 0 1.8-0.2 2.7-0.5 0.8-0.3 1.5-0.8 2-1.3s1.3-1.5 2.2-2.9c0.9-1.4 1.5-2.3 1.7-2.8 0.2-0.4 0.3-1.3 0.3-2.4s0.2-2.3 0.7-3.4c0.5-1.1 1.2-1.9 2-2.6 0.8-0.7 1.3-1.1 1.3-1.3 0-0.3-0.5-1.9-1.6-4.8s-1.7-4.5-1.9-4.8c-0.2-0.3-0.3-0.4-0.5-0.4s-0.5 0.1-0.8 0.2c-0.4 0.1-0.9 0.2-1.5 0.2-2 0-4-0.9-6-2.6-2-1.8-3.1-3.5-3.1-5.2 0-1.7 0.6-3.3 1.8-4.9 1.2-1.6 2.5-3.7 4-6.3 0.9-1.4 1.8-2.3 2.8-2.7 0.7-0.2 1-0.7 1-1.6v-18.4c0-2-0.5-3.4-1.5-4.2-1-0.7-2.8-1.1-5.4-1.1-2.6 0-4.4 0.3-5.3 1-0.9 0.7-1.4 2.1-1.4 4.2v16.2c0 0.8-0.3 1.3-0.8 1.3-0.2 0-0.4-0.1-0.6-0.3-0.7-0.7-1.6-1.1-2.7-1.1s-2.4 0.8-4 2.4c-1.6 1.6-2.4 3.4-2.4 5.3 0 2.8 1.4 5.6 4.2 8.5 1.5 1.6 3.4 3.7 5.5 6.4 2.2 2.6 3.3 4.2 3.3 4.8 0 0.5-0.4 0.8-1.1 0.8h-3.1z m20.8-10.8c0.4-1.4 0.9-2.4 1.5-3.1 0.1-0.1 0.1-0.2 0.1-0.4 0-0.1-0.2-0.3-0.5-0.4-2.6-1.1-4.2-3.3-4.9-6.5-0.1-0.5-0.4-0.7-0.9-0.7-1 0-1.9 0.8-2.8 2.4-0.9 1.6-2 3.4-3.4 5.3-0.8 1.2-1.3 2.4-1.3 3.5s0.7 2.3 2.1 3.4c1.4 1.1 2.7 1.7 4.1 1.7 1.3 0 2.6-0.7 3.8-2.1 1.3-1.3 2-2.4 2.2-3.1z m43.6-28.3c0-3.9-0.7-6.6-2-8.1-1.4-1.5-3.7-2.2-7.1-2.2H306c-3.4 0-5.8 0.7-7.1 2.2-1.4 1.5-2 4.2-2 8.1v12.5c0 3.9 0.7 6.6 2.1 8.1 1.4 1.5 3.7 2.2 7.1 2.2h26.8c3.3 0 5.7-0.7 7.1-2.2 1.4-1.5 2.1-4.2 2.1-8.1v-12.5z m-4.6 61.2c3.6 0 5.3-2.1 5.3-6.3 0-4.3-1.8-6.5-5.3-6.5h-34.6c-3.6 0-5.3 2.1-5.3 6.4 0 4.3 1.8 6.4 5.3 6.4h34.6z m-6-15.4c2.8 0 4.9-0.3 6.1-0.8 1.3-0.5 2.1-1.5 2.5-2.9 0.4-1.4 0.6-3.6 0.6-6.7 0-4.8-0.7-7.7-2.2-8.8-1.4-1-3.8-1.6-7-1.6h-21.8c-3.2 0-5.6 0.5-7.1 1.6-1.5 1-2.2 3.5-2.2 7.5 0 3.9 0.2 6.6 0.6 8 0.4 1.4 1.2 2.3 2.5 2.9 1.3 0.5 3.3 0.8 6.2 0.8h21.8z m-18.4-34.8c0.4 0 0.6 0.1 0.7 0.3 0.1 0.2 0.2 0.7 0.2 1.3 0 0.7 0 1.1-0.1 1.4-0.1 0.2-0.3 0.4-0.7 0.4h-2.8c-0.4 0-0.6-0.1-0.7-0.3-0.1-0.2-0.2-0.7-0.2-1.4s0.1-1.2 0.2-1.4c0.1-0.2 0.4-0.3 0.7-0.3h2.7z m0-11.6c0.4 0 0.6 0.1 0.7 0.3 0.1 0.2 0.2 0.7 0.2 1.4s-0.1 1.2-0.2 1.4c-0.1 0.2-0.3 0.3-0.7 0.3h-2.8c-0.4 0-0.6-0.1-0.7-0.3-0.1-0.2-0.2-0.7-0.2-1.4s0.1-1.2 0.2-1.4c0.1-0.2 0.4-0.3 0.7-0.3h2.8z m12.7 34.6c1 0 1.5 0.5 1.5 1.6s-0.5 1.6-1.5 1.6h-10.3c-1 0-1.6-0.5-1.6-1.6s0.5-1.6 1.6-1.6h10.3z m2.4-23c0.4 0 0.7 0.1 0.8 0.4 0.1 0.3 0.2 0.7 0.2 1.3 0 0.6-0.1 1.1-0.2 1.3-0.1 0.2-0.4 0.4-0.8 0.4h-2.7c-0.4 0-0.6-0.1-0.7-0.3-0.1-0.2-0.2-0.7-0.2-1.4s0.1-1.2 0.2-1.4c0.1-0.2 0.4-0.3 0.7-0.3h2.7z m0-11.6c0.4 0 0.7 0.1 0.8 0.3 0.1 0.2 0.2 0.7 0.2 1.4s-0.1 1.2-0.2 1.4c-0.1 0.2-0.4 0.3-0.8 0.3h-2.7c-0.4 0-0.6-0.1-0.7-0.3-0.1-0.2-0.2-0.7-0.2-1.3 0-0.7 0.1-1.1 0.2-1.4 0.1-0.2 0.4-0.4 0.7-0.4h2.7zM394.1 458.7c2.5 0 4.1-0.4 4.9-1.1 0.7-0.8 1.1-2.2 1.1-4.4 0-2.4-0.3-3.9-1-4.6-0.7-0.7-2.3-1-4.9-1h-58.8c-2.4 0-4 0.3-4.8 0.9-0.8 0.6-1.2 2-1.2 4.3s0.3 3.8 0.9 4.7c0.6 0.8 2.3 1.3 5.1 1.3h21c0.6 0 0.9 0.1 1 0.3 0.1 0.2 0.2 0.6 0.2 1.2s-0.1 1-0.2 1.1c-0.2 0.2-0.5 0.3-1.1 0.3h-19.5c-0.8 0-1.5 0.1-2 0.4-0.5 0.3-0.8 0.5-0.8 0.8 0 0.3 0.3 0.3 0.9 0.2 0.6-0.2 1.2-0.2 1.9-0.2 1.6 0 3.6 0.7 6 2s4.2 3.1 5.4 5.3c0.7 1.2 1.8 1.8 3.2 1.8h5.2c0.4 0 0.7 0.1 0.8 0.2 0.1 0.2 0.2 0.4 0.2 0.9 0 0.4 0 0.7-0.1 0.9-0.1 0.2-0.4 0.3-0.9 0.3H349c-0.9 0-1.6-0.5-2.1-1.4-1.2-2.5-2.8-4.2-4.9-5.4-2.1-1.1-3.8-1.7-5.3-1.7-1.4 0-3 0.7-4.7 2.1-1.7 1.4-2.5 3.1-2.5 5.2 0 1.3 0.4 2.5 1.2 3.4 3.4 4.5 6 8.3 7.8 11.3 0.9 1.5 2.4 2.3 4.4 2.3 1.5 0 3-0.5 4.6-1.4 1.5-0.9 2.7-1.9 3.4-2.9 0.3-0.6 0.7-1 1.1-1.2 0.4-0.2 1.3-0.3 2.6-0.3s2.2 0.1 2.5 0.2c0.4 0.2 0.6 0.5 0.6 0.9 0 1.5 0.6 2.6 1.9 3.2 1.3 0.6 3.2 0.9 5.8 0.9 2.6 0 4.6-0.4 6-1.3 1.4-0.8 2.1-1.9 2.1-3.2 0-0.6 0.4-0.9 1.3-0.9H392c3.8 0 5.6-1.7 5.6-5s-1.9-5-5.6-5h-17.3c-0.5 0-0.8-0.1-0.9-0.2-0.1-0.1-0.2-0.4-0.2-0.9s0.1-0.8 0.2-1c0.1-0.2 0.4-0.2 0.9-0.2h16c2.6 0 4.2-0.3 4.8-0.9 0.6-0.6 0.9-2 0.9-4.2s-0.4-3.6-1.1-4.2c-0.8-0.6-2.3-0.9-4.6-0.9h-15.8c-0.5 0-0.9-0.1-1-0.3-0.2-0.2-0.2-0.6-0.2-1.2s0.1-1 0.2-1.2c0.2-0.2 0.5-0.2 1.1-0.2h19.1z m0.3 34.5c0-1.8-0.6-3.3-1.7-4.6-1.2-1.3-2.4-2-3.8-2h-10.7c-0.9 0-1.5 0.1-1.9 0.3-0.4 0.2-0.9 0.8-1.6 1.8-0.7 1-1.9 1.8-3.5 2.5s-3.5 1.1-5.7 1.1c-5.3 0-8.7-1.4-10.2-4.3-0.4-0.7-0.8-1.1-1.2-1.1-0.4 0-1 0.4-1.6 1.1-0.7 0.7-1.9 1.7-3.7 2.9-1.8 1.2-3.9 1.8-6.2 1.8s-3.9-0.6-4.9-1.7c-0.6-0.6-1.1-0.9-1.6-0.9-1.3 0-2 1.8-2 5.5v16.9c0 2 0.8 3.7 2.5 5.1 1.7 1.4 3.9 2.1 6.8 2.1h41.3c3.1 0 5.5-0.7 7.1-2 1.7-1.3 2.5-3.2 2.5-5.5v-19z m-16.8 13.3c0.6 0 1 0.1 1.2 0.4 0.2 0.2 0.3 0.7 0.3 1.4s-0.1 1.1-0.3 1.3c-0.2 0.2-0.6 0.2-1.3 0.2h-25.9c-1 0-1.6-0.7-1.6-2 0-0.8 0.5-1.3 1.4-1.3h26.2z m0-9.8c1 0 1.5 0.4 1.5 1.2 0 0.8-0.1 1.3-0.3 1.5-0.2 0.2-0.6 0.3-1.3 0.3h-25.9c-0.6 0-1-0.1-1.3-0.4-0.2-0.3-0.3-0.7-0.3-1.4s0.5-1.1 1.4-1.1h26.2zM377.5 338.6c2.9 0 4.7-0.5 5.5-1.6 0.8-1 1.2-2.8 1.2-5.3s-0.5-4.3-1.4-5.4c-0.9-1.1-2.3-1.7-4.2-1.7-1.9 0-3.1 0.1-3.6 0.2s-0.9 0.4-1.1 0.8c-1 1.5-2.4 2.6-4.1 3.1-1.8 0.6-4.1 0.9-7.1 0.9h-30.1c-3.1 0-5.6-0.3-7.4-1-1.8-0.7-3.1-1.8-3.9-3.4-0.2-0.3-0.5-0.5-1.1-0.7-0.6-0.1-1.8-0.2-3.5-0.2-1.8 0-3.1 0.6-4.1 1.8-0.9 1.2-1.4 3-1.4 5.3s0.5 4.1 1.5 5.3 2.5 1.9 4.4 1.9h19.7c0.8 0 1.2 0.4 1.2 1.1 0 3 3.7 4.5 11 4.5 2.5 0 4.4-0.4 5.7-1.1 1.3-0.8 2-2 2.2-3.6 0.1-0.6 0.5-0.9 1.3-0.9h19.3z m5.6-59.8c0-3-0.6-5.1-1.9-6.4-1.3-1.3-3.4-2-6.3-2h-9.8c-2.1 0-3.6 0.5-4.6 1.5-1 1-1.5 2.7-1.5 5s0.5 4 1.5 5.2c1 1.2 2.5 1.8 4.4 1.8h3.3c0.5 0 0.8 0.1 1 0.3 0.2 0.2 0.3 0.5 0.3 1.1v5.9c0 2.4-1.1 4.2-3.3 5.7-2.2 1.4-4.8 2.2-7.8 2.2h-19.2c-4.2 0-7.3-0.6-9.3-1.9-1.9-1.3-2.9-3.6-2.9-7v-7.7c0-2.4 0.5-4.3 1.5-5.6 0.6-0.9 0.9-1.8 0.9-2.8 0-1-0.7-1.8-2.1-2.5-1.4-0.7-3.4-1.1-6.2-1.1s-4.7 0.5-6 1.4c-1.3 0.9-1.9 2.6-1.9 4.9v24.7c0 1.8 0.2 3.2 0.6 4.2 0.4 1 1.3 2 2.7 3 1.4 0.9 2.4 1.4 2.9 1.4s1.2-0.5 1.8-1.6c1.5-2.5 5.1-3.8 11.1-3.8h30.1c3.2 0 5.7 0.3 7.5 0.9 1.8 0.6 3.1 1.8 3.9 3.5 0.5 1.1 1.3 1.6 2.4 1.6 0.8 0 1.9-0.5 3.1-1.5 1.2-1 2.1-2 2.7-3.1 0.6-1.1 0.9-2.7 0.9-4.7v-22.6z m-10.8 34.5c0-2.5-0.7-4.1-2.2-5-1.4-0.9-3.9-1.3-7.4-1.3h-30.1c-3.4 0-5.9 0.4-7.4 1.3s-2.2 2.6-2.2 5v7.2c0 2.5 0.7 4.1 2.2 5 1.5 0.9 3.9 1.3 7.3 1.3h30.1c3.4 0 5.8-0.4 7.3-1.3s2.2-2.6 2.2-5v-7.2z m-5.3-25.2c0-1.1-0.7-1.6-2-1.6-2.7 0-4.7-0.7-6.2-2.2-1.5-1.5-2.2-3.6-2.4-6.4-0.1-0.7-0.2-1.2-0.5-1.5-0.3-0.3-0.9-0.4-1.8-0.4h-14.8c-3.4 0-5.9 0.4-7.4 1.3s-2.2 2.6-2.2 5V290c0 2.5 0.7 4.1 2.2 5 1.5 0.9 3.9 1.3 7.3 1.3h19.2c2.5 0 4.5-0.5 6.1-1.5 1.6-1 2.4-2.2 2.4-3.8v-2.9z m-11 27.8c0.6 0 0.9 0.4 0.9 1.3s-0.3 1.3-0.9 1.3h-16.9c-0.5 0-0.8-0.4-0.8-1.3s0.3-1.3 0.8-1.3H356z m-4.6-30.6c0.5 0 0.8 0.1 0.9 0.4 0.1 0.3 0.2 0.7 0.2 1.3 0 0.6-0.1 1-0.2 1.3-0.1 0.3-0.4 0.4-0.9 0.4h-6.9c-0.5 0-0.8-0.1-0.9-0.4-0.1-0.3-0.2-0.7-0.2-1.3 0-0.6 0.1-1 0.2-1.3 0.1-0.3 0.4-0.4 0.9-0.4h6.9zM416.3 142.8c0.9 0 1.6-0.1 1.8-0.4 0.3-0.3 0.4-0.9 0.4-1.8s-0.5-2.5-1.4-4.8c-0.9-2.2-2-4.3-3.4-6.3-1.3-1.9-2.5-3.2-3.4-3.7-0.9-0.5-2.2-0.8-3.6-0.8-1.5 0-3.4 0.7-5.8 2.2-2.4 1.4-3.5 3-3.5 4.7 0 0.8 0.2 1.6 0.6 2.5 0.4 0.9 1.3 2.4 2.6 4.5s2.1 3.3 2.4 3.6c0.3 0.3 0.8 0.4 1.5 0.4h11.8z m5.9 54.5c0.9 0 1.5-0.1 1.9-0.3 0.4-0.2 0.5-0.4 0.5-0.8 0-0.3 0-0.7-0.1-1-0.3-1.3-0.4-2.8-0.4-4.4 0-1.6 0.3-3.2 0.8-4.8 0.5-1.5 1.2-2.6 2.1-3.2 0.9-0.6 1.3-1.1 1.3-1.6s-0.5-1.1-1.4-1.7c-2-1.4-3.1-3.4-3.1-6 0-1.6 0.4-3.1 1.3-4.5 0.3-0.5 0.4-1.2 0.4-2.3v-19c0-0.9-0.1-1.5-0.3-1.9-0.2-0.4-0.7-0.5-1.7-0.5H407c-2.1 0-3.9 0.7-5.3 2.2-1.4 1.4-2 3.3-2 5.6V189c0 5.5 2.6 8.3 7.8 8.3h14.7z m-7.2-19.8c1.3 0 2 0.2 2.3 0.5 0.3 0.4 0.4 1.1 0.4 2.1s-0.2 1.7-0.5 2c-0.3 0.3-1.1 0.4-2.2 0.4s-1.9-0.1-2.2-0.4c-0.3-0.3-0.5-0.9-0.5-2 0-1 0.1-1.7 0.4-2.1 0.4-0.3 1.1-0.5 2.3-0.5z m0-18.4c1.1 0 1.8 0.2 2.2 0.6 0.4 0.4 0.5 1.1 0.5 2.2 0 1-0.1 1.8-0.4 2.2-0.3 0.4-1 0.6-2.3 0.6-1.2 0-2-0.2-2.3-0.6-0.3-0.4-0.4-1.1-0.4-2.2s0.2-1.8 0.5-2.2c0.4-0.5 1.1-0.6 2.2-0.6z m10.6-16.4c1.6 0 2.5-0.1 2.7-0.2 1-0.5 1.8-0.9 2.4-1.1 0.6-0.2 1-0.6 1.2-1.2 0.2-0.5 0.4-1.8 0.5-3.7 0.2-1.9 0.2-3.8 0.2-5.6 0-1.8-0.6-3-1.9-3.8-1.3-0.8-3.3-1.1-6.2-1.1-4.1 0-6.1 1.3-6.1 3.8 0 0.8 0.2 1.8 0.7 2.8 1.3 2.8 2.2 5.4 2.8 7.9 0.2 1 0.5 1.6 0.9 1.8 0.5 0.3 1.4 0.4 2.8 0.4z m34.4 54.9c2 0 3.6-0.4 4.9-1.1 1.3-0.7 2.2-1.6 2.8-2.8 0.5-1.2 0.8-2.7 0.8-4.6 0-3.1-0.2-6.6-0.5-10.4-0.4-3.9-1.2-6.5-2.5-7.8-1.3-1.3-3.5-2-6.6-2h-7.6c-2.1 0-3.6 0.5-4.6 1.4-1 0.9-1.5 2.5-1.5 4.9 0 2.3 0.5 3.9 1.5 4.6 1 0.8 2.7 1.1 5.1 1.1 0.7 0 1.2 0.1 1.5 0.2 0.3 0.2 0.4 0.6 0.4 1.3 0 0.7-0.5 1-1.6 1h-2c-4.9 0-7.4-2.7-7.4-8.2l0.2-2.7c0-1.1-1.1-2.5-3.3-4.1-2.2-1.6-4-2.5-5.5-2.5s-3.1 0.8-4.9 2.4c-1.8 1.6-2.7 3.3-2.7 5.1 0 1.8 0.5 3.1 1.6 4 3 2.5 4.7 4.1 5.3 4.9 0.5 0.8 0.8 1.3 0.8 1.6 0 0.3-0.5 0.4-1.6 0.4-2.2 0-3.7 0.5-4.5 1.6-0.8 1.1-1.2 3-1.2 5.6 0 2.6 0.4 4.3 1.1 5.1 0.7 0.8 2.1 1.2 4.2 1.2H460z m7.9-47.2c0-4.6-2.5-6.9-7.4-6.9h-24.8c-2.1 0-3.8 0.6-5.1 1.8-1.3 1.2-1.9 2.8-1.9 4.9v12.2c0 1.3 0.4 1.9 1.3 1.9 0.3 0 0.8-0.1 1.5-0.4 0.7-0.3 1.5-0.4 2.5-0.4 2.5 0 5.4 1.4 8.5 4.3 0.5 0.5 1 0.7 1.5 0.7 0.4 0 1.1-0.3 2.1-0.9 1-0.6 3-0.9 6-0.9h6.3c0.9 0 2.1 0.1 3.6 0.3 1.4 0.2 2.5 0.4 3.1 0.5 0.6 0.2 1.1 0.2 1.4 0.2 1 0 1.5-0.8 1.5-2.4v-14.9z m-25-9.2c1.1 0 1.9-0.8 2.4-2.4 0.7-3 2-6 3.9-8.9 0.2-0.4 0.3-0.7 0.3-0.9 0-0.7-0.7-1.3-2.2-2-1.5-0.6-3.2-0.9-5.3-0.9-2 0-3.5 0.5-4.3 1.4-0.8 0.9-1.3 2.2-1.5 3.8l-0.6 4.9c-0.2 1.1-0.2 2.1-0.2 2.9 0 0.8 0.2 1.4 0.5 1.6 0.4 0.3 1 0.4 2 0.4h5z m9.6 14.3c1 0 1.6 0.5 1.6 1.4 0 1-0.1 1.6-0.4 1.8-0.2 0.3-0.6 0.4-1.2 0.4h-9.3c-0.8 0-1.2-0.6-1.2-1.8 0-1.2 0.4-1.8 1.2-1.8h9.3z m10.3-14.6c0.8 0 1.5-0.2 2.1-0.7 0.6-0.5 1.4-1.7 2.5-3.5s1.6-3.3 1.6-4.5c0-1.8-1.2-3.5-3.6-4.9-2.4-1.4-4.3-2.2-5.8-2.2-2.4 0-4.8 2-7.3 6s-3.7 6.7-3.7 7.9c0 1.3 0.6 1.9 1.9 1.9h12.3zM280.1 770.3c-10.2 1.5-69.9 23.3-47.4 48.5s55.6-39.2 55.6-39.2 2.1-10.8-8.2-9.3zM288.9 769.8c-1.5-1.5-4.3-3.2-9.2-2.5-4.2 0.6-15.8 4.3-27.3 10.1-10.1 5.1-22.9 13.4-26.7 23.8-1.6 4.7-2.2 11.9 4.5 19.6l0.1 0.1c4.7 5.2 10.1 7.5 16.3 6.7 21.6-2.7 43.5-44.8 44.5-46.6l0.2-0.4 0.1-0.5c0.1-0.7 1.1-6.4-2.3-10.2 0 0-0.1-0.1-0.2-0.1z m-43 51.7c-4 0.5-7.5-1-10.8-4.7-4-4.5-5.2-8.9-3.5-13.5 5.8-15.9 41.3-28.7 49-29.9 1.3-0.2 3-0.2 3.8 0.6 1 1.1 1.1 3.4 0.9 4.7-6.1 11.7-24.4 40.9-39.4 42.8zM859 46.9l4.1 12.7c-0.7 0.2-71.2 23.4-97.4 77.1-12.5 25.6-13 54.5-1.5 85.7 16.8 45.4 17 83 0.7 111.7-24.4 42.9-79.8 58.1-125.4 66.5-73.9 13.7-148.3 119.5-193.3 214C398.3 715.3 295 773.7 290.6 776.2l-6.5-11.7c1-0.6 104-58.9 150.1-155.6 18.3-38.5 48.7-94.5 89.6-142.5 38.7-45.6 76.9-72.1 113.3-78.9 42.7-7.9 94.6-21.9 116.2-60 14.3-25.1 13.7-58.9-1.6-100.5-12.8-34.8-12.2-67.2 2-96.2 28.7-58.9 102.2-82.9 105.3-83.9zM414 667.9m-80.1 0a80.1 80.1 0 1 1 160.2 0 80.1 80.1 0 1 1-160.2 0ZM356.8 602.6c-36 31.5-39.6 86.5-8.1 122.5s86.5 39.6 122.5 8.1 39.6-86.5 8.1-122.5-86.5-39.6-122.5-8.1z m8.8 10.1c30.5-26.7 77-23.6 103.6 6.8 26.7 30.5 23.6 77-6.8 103.6-30.5 26.7-77 23.6-103.6-6.8-26.8-30.5-23.7-77 6.8-103.6zM519.3 483.8m-80.1 0a80.1 80.1 0 1 1 160.2 0 80.1 80.1 0 1 1-160.2 0ZM462.1 418.5C426.1 450 422.5 505 454 541s86.5 39.6 122.5 8.1 39.6-86.5 8.1-122.5-86.5-39.7-122.5-8.1z m8.8 10c30.5-26.7 77-23.6 103.6 6.8 26.7 30.5 23.6 77-6.8 103.6-30.5 26.7-77 23.6-103.6-6.8-26.7-30.4-23.7-76.9 6.8-103.6zM696.5 362.1m-80.1 0a80.1 80.1 0 1 1 160.2 0 80.1 80.1 0 1 1-160.2 0ZM639.3 296.9c-36 31.5-39.6 86.5-8.1 122.5s86.5 39.6 122.5 8.1 39.6-86.5 8.1-122.5c-31.6-36.1-86.5-39.7-122.5-8.1z m8.8 10c30.5-26.7 77-23.6 103.6 6.8 26.7 30.5 23.6 77-6.8 103.6-30.5 26.7-77 23.6-103.6-6.8-26.7-30.4-23.7-76.9 6.8-103.6zM762.7 163.9m-80.1 0a80.1 80.1 0 1 1 160.2 0 80.1 80.1 0 1 1-160.2 0ZM705.5 98.6c-36 31.5-39.6 86.5-8.1 122.5s86.5 39.6 122.5 8.1 39.6-86.5 8.1-122.5-86.5-39.7-122.5-8.1z m8.8 10c30.5-26.7 77-23.6 103.6 6.8 26.7 30.5 23.6 77-6.8 103.6-30.5 26.7-77 23.6-103.6-6.8-26.7-30.4-23.6-76.9 6.8-103.6zM289.4 732.2l43.2 49.2c4.8 5.5 4.3 14-1.2 18.8-5.5 4.8-14 4.3-18.8-1.2l-43.2-49.2c-4.8-5.5-4.3-14 1.2-18.8 5.5-4.8 14-4.3 18.8 1.2zM266.2 726c-8.3 7.3-9.1 19.9-1.9 28.2l43.2 49.2c7.3 8.3 19.9 9.1 28.2 1.9 8.3-7.3 9.1-19.9 1.9-28.2l-43.2-49.2c-7.2-8.4-19.9-9.2-28.2-1.9z m8.2 19.4c-2.4-2.8-2.1-7 0.6-9.4 2.8-2.4 7-2.1 9.4 0.6l43.2 49.2c2.4 2.8 2.1 7-0.6 9.4-2.8 2.4-7 2.1-9.4-0.6l-43.2-49.2zM859.6 37.3c-5.9 5.2-6.5 14.2-1.3 20.1 5.2 5.9 14.2 6.5 20.1 1.3l13.7-12-18.8-21.4-13.7 12zM857.8 35.3c-7 6.1-7.7 16.9-1.6 23.9s16.9 7.7 23.9 1.6l15.7-13.8-22.3-25.5-15.7 13.8z m30.5 11.2l-11.7 10.2c-4.8 4.2-12.1 3.7-16.3-1.1s-3.7-12.1 1.1-16.3l11.7-10.2 15.2 17.4zM873.3 25.3l18.8 21.4 73.9-37.4s0.2-11.1-16.2-29.7-29.7-22.6-29.7-22.6l-46.8 68.3zM951.9-22.1c-16.7-19-30.3-23.3-30.9-23.5l-1.9-0.6-49.1 71.7 21.5 24.6 77.2-39.1v-1.6c0-0.5 0-12.3-16.7-31.4l-0.1-0.1z m-59.1 65.4l-16-18.3 44.4-64.8c4 1.8 14.4 7.3 26.6 21.2 0.1 0.1 0.1 0.1 0.1 0.2 11.8 13.5 14.6 22.7 15.2 26.2l-70.3 35.5zM955.6-12.4l-56.4 37.6c-1.3 0.8-1.6 2.5-0.7 3.7 0.8 1.3 2.5 1.6 3.7 0.7l56.4-37.6c1.3-0.8 1.6-2.5 0.7-3.7-0.1-0.1-0.2-0.2-0.2-0.3-0.9-1-2.5-1.2-3.5-0.4zM930.4-16.1c-1.1-1-2.8-1.1-3.8 0L902 8.4c-1 1.1-1.1 2.8 0 3.8s2.8 1.1 3.8 0l24.6-24.5c1-1 1.1-2.6 0.1-3.7-0.1 0-0.1 0-0.1-0.1zM426.9 708c0.4-0.7 0.7-1 0.9-0.9 0.2 0.1 0.4 0.3 0.6 0.7 0.3 0.4 0.7 0.8 1.4 1.1 2.3 1.3 4.9 1.6 7.8 1 2.9-0.7 5-2.1 6.3-4.2 0.7-1.2 1.1-2.6 1.2-4.2 0.1-1.6-0.2-4.2-0.8-7.6-0.6-3.4-1.4-6.6-2.4-9.6-0.3-1-0.2-1.8 0.2-2.5l10.1-17.4c2-3.5 2.8-6.5 2.3-8.9-0.5-2.4-2.3-4.6-5.4-6.4l-10.7-6.2c-2.2-1.3-4.3-1.5-6.5-0.9-2.1 0.7-3.9 2.3-5.4 4.8-2.9 5-1.7 9.1 3.6 12.2 0.9 0.6 1.4 1.1 1.5 1.4 0.1 0.3 0 0.8-0.3 1.3-0.3 0.6-0.6 0.8-1 0.8-0.3 0-1-0.3-1.9-0.8-2.9-1.7-4.9-3.6-6-5.6-1.1-2-1.2-4.4-0.5-7.1 0.3-1.2 0.3-2.3-0.1-3.3-0.4-1.1-2-3.5-5.1-7.3-3-3.8-6.2-7.4-9.5-10.7-3.3-3.3-5.8-5.4-7.6-6.5-3.1-1.8-5.8-2.1-8.1-0.8-2.3 1.2-4.1 3-5.4 5.1-2.4 4-0.8 8.4 4.7 13.1 2.8 2.3 5.7 5 8.5 8 2.9 3 5.3 5.8 7.1 8.4 1.9 2.6 2.8 3.9 2.8 4.1 0 0.2 0 0.3-0.1 0.5s-0.5 0.4-1.1 0.6c-0.6 0.2-1.1 0.3-1.3 0.1-0.3-0.2-0.5-0.4-0.8-0.7-3.3-4.6-7-8.9-11.2-13.1-4.2-4.1-7-6.6-8.5-7.5-2.2-1.3-4.2-1.4-6.2-0.4-2 1-3.7 2.7-5.1 5.2-2.5 4.3-1.1 8 4.3 11.2 0.6 0.3 0.9 0.6 0.9 0.8 0.1 0.2 0 0.5-0.2 0.8l-14.4 24.8c-1.7 2.9-2.1 5.8-1.3 8.6 0.8 2.9 2.8 5.2 6 7.1l6 3.5c0.5 0.3 0.8 0.6 0.9 0.8 0.1 0.2 0 0.6-0.2 1.1-0.9 2.9-0.9 5.2-0.1 6.9 0.8 1.7 2.3 3.2 4.6 4.6 2.3 1.3 4.2 2.3 5.8 2.9 1.6 0.6 3 0.8 4.2 0.8 1.2-0.1 2.1-0.4 2.8-1 0.7-0.6 1.3-1.3 1.8-2.2 0.5-0.9 0.9-1.4 1.1-1.4 0.2 0 0.4 0 0.8 0.2l9.7 5.7c3.1 1.8 5.9 2.5 8.3 2 2.4-0.4 4.4-2 5.9-4.6l5.1-8.4z m-20.3-8.3c0.8 0.5 1.2 0.8 1.3 1.1 0.1 0.3 0 0.7-0.5 1.5-0.4 0.7-0.8 1.1-1 1.1-0.3 0-0.8-0.2-1.6-0.6L384.7 691c-0.7-0.4-1.1-0.8-1.1-1 0-0.2 0.1-0.7 0.5-1.4s0.7-1.1 0.9-1.1c0.2-0.1 0.7 0.1 1.4 0.5l20.2 11.7z m6.4-10.9c0.7 0.4 1.1 0.7 1.3 0.9 0.2 0.2 0.1 0.7-0.3 1.4s-0.8 1.1-1.1 1.2c-0.3 0.1-0.8-0.1-1.6-0.6L391.1 680c-0.8-0.5-1.2-0.8-1.2-1.1 0-0.2 0.2-0.7 0.6-1.3 0.4-0.6 0.7-1 0.9-1 0.2-0.1 0.7 0.1 1.4 0.5l20.2 11.7z m6.4-11c0.8 0.5 1.2 0.8 1.3 1.1 0.1 0.3 0 0.8-0.5 1.5-0.4 0.7-0.8 1.1-1.1 1-0.3-0.1-0.8-0.3-1.4-0.7L397.5 669c-0.7-0.4-1.1-0.8-1.1-1 0-0.2 0.1-0.7 0.5-1.3 0.4-0.6 0.7-1 0.9-1.1 0.2-0.1 0.7 0.1 1.5 0.5l20.1 11.7zM489.2 457.2c-0.2 0.4-0.4 0.5-0.6 0.4-0.2-0.1-0.4-0.4-0.8-0.8-0.3-0.4-0.8-0.8-1.4-1.2-1.3-0.8-3.1-0.9-5.4-0.4-2.2 0.5-4 1.8-5.2 3.9-1.9 3.3-2.6 7.4-2.1 12.3 0.8 8.7-0.1 18.7-2.6 30-0.5 2.1-0.5 3.8 0 5.1 0.5 1.3 1.7 2.5 3.7 3.7 2 1.1 4.4 1.9 7.2 2.3 2.8 0.4 5.2-0.9 7-4.1 0.9-1.6 1.5-3.1 1.8-4.5 0.3-1.5-0.3-2.7-1.7-3.7-2.3-1.7-3.5-3.6-3.7-5.6-0.2-2.1 0.5-4.5 2.1-7.2s3-4.7 4.1-5.9c1.2-1.2 2.4-2 3.7-2.3 1-0.3 1.6-0.7 2-1.4l5.6-9.6c0.5-0.9 0.6-1.8 0.3-2.8-1-3.3-1.5-6.5-1.3-9.6 0.2-3 0.9-5.7 2.2-8 2.5-4.3 6.6-6.4 12.4-6.2 1.1 0.1 1.9-0.2 2.2-0.8 1.8-3.2 2.5-5.4 1.9-6.8-0.6-1.4-2.3-2.9-5.2-4.6-2.9-1.7-5.2-2.3-6.8-1.9-1.7 0.4-3.5 2.4-5.6 5.9l-13.8 23.8z m32.2 58.3l12.1 7c2.7 1.6 4.9 2.1 6.5 1.5 1.6-0.6 3.2-2.3 4.8-5.1 1.6-2.8 2.2-5 1.8-6.7-0.4-1.7-1.9-3.3-4.4-4.7l-7.6-4.4c-0.3-0.2-0.4-0.4-0.3-0.7 0.2-0.3 2.8-2.1 8-5.3 5.2-3.3 10.1-5.8 14.7-7.7 4.6-1.8 7.9-4.4 9.8-7.7 1.4-2.4 1.8-4.8 1.2-7.2-0.6-2.4-2-4.2-4.1-5.4-1.4-0.8-2.7-1.2-3.8-1.1-1.2 0.1-1.9 0.4-2.3 1.1-0.1 0.2-0.2 0.5-0.3 0.9-0.4 1.5-1.3 3.3-2.5 5.4-2.5 4.3-4.8 6.3-6.9 6.2-2.1-0.1-4.2-0.8-6.1-2-0.5-0.3-0.5-0.8-0.1-1.5s0.7-1.1 0.9-1.2c0.2-0.1 0.5-0.1 0.8 0.1 2.2 1.1 3.8 1.4 5 0.9 1.1-0.5 2.4-1.9 3.8-4.3s2-4.2 1.9-5.5c-0.1-1.3-1.1-2.6-3.1-3.9-0.6-0.4-0.7-0.9-0.4-1.4l1.6-2.7c1.5-2.6 2-4.8 1.4-6.5-0.6-1.7-2.3-3.4-5.1-5s-5.1-2.3-6.9-2c-1.7 0.3-3.4 1.8-4.9 4.5l-1.6 2.7c-0.2 0.4-0.4 0.6-0.6 0.6-0.2 0-0.4-0.1-0.7-0.2-2.9-1.7-4.9-2.3-6.2-1.9-1.2 0.4-2.6 1.9-4.1 4.5-1.5 2.6-2.1 4.5-1.9 5.8 0.2 1.3 1.8 2.8 4.7 4.5 0.5 0.3 0.6 0.7 0.3 1.2l-2.2 3.7c-0.1 0.2-0.2 0.3-0.4 0.2-0.1-0.1-0.2-0.3-0.3-0.8-0.5-1.8-1.4-3.2-2.9-4.3-1.5-1.1-2.4-2.3-2.7-3.4-0.3-1.1-0.3-2.4 0.2-3.8s1.4-3.2 2.7-5.4c1.3-2.2 1.9-4.1 1.7-5.4-0.2-1.4-1-2.5-2.5-3.3-1.5-0.9-3.7-1.2-6.7-1-3 0.2-5.4 1.7-7 4.5-2.1 3.6-2.5 8.1-1.1 13.4 1.1 4.3 1.8 9.3 2 15.1 0.2 5.8 0.2 8.9-0.1 9.3-0.1 0.2-0.4 0.2-0.8 0l-5.1-2.9c-2.4-1.4-4.4-1.9-6-1.5-1.6 0.4-3.2 2.2-5 5.2-1.8 3-2.4 5.3-2 6.9 0.4 1.6 1.8 3 4.2 4.5l11.1 6.5c0.3 0.2 0.5 0.4 0.6 0.5 0 0.1 0 0.4-0.2 0.7l-5 8.6c-1.5 2.6-2 4.7-1.3 6.3 0.6 1.6 2.4 3.3 5.2 4.9 2.9 1.7 5.1 2.3 6.9 2 1.7-0.3 3.3-1.7 4.8-4.3l4.9-8.5c0.6-0.7 1-0.8 1.6-0.5zM661.2 337.4c-0.5 0.8-1.2 1.1-2.2 0.7-1.9-0.5-3.7-0.3-5.4 0.6-1.8 0.9-3.2 2.3-4.3 4.3-1.1 1.9-1.8 4.1-2.1 6.5-0.5 4.8-1.3 9.4-2.3 13.7-1 4.3-2.4 9.4-4.3 15.4-0.8 2.6-0.8 4.8 0 6.6 0.8 1.8 2.2 3.3 4.2 4.4 2 1.2 3.2 1.4 3.6 0.8 0.3-0.4 0.1-1.1-0.4-1.9-2.2-3.4-1.8-7.7 1.2-12.8 1.3-2.2 2.8-3.8 4.4-4.9 1.7-1 3.4-1.4 5.1-1.2 0.3 0 0.6-0.1 0.9-0.5 0.2-0.4 0.5-1.5 0.7-3.2 0.6-4.7 1.6-8.1 2.8-10.2 1.2-2.1 2.8-3.5 4.6-4.1 0.1 0 0.2-0.1 0.3-0.3 0.1-0.2 0.1-0.4 0-0.8-0.8-2.3-0.5-4.6 0.8-6.9 0.9-1.5 2.4-3.2 4.7-5.2 2.2-2 3.9-3.4 4.9-4.1 1-0.7 1.7-1.2 1.8-1.5 0.4-0.7 0.3-2.2-0.1-4.7-0.9-4.9-0.5-8.7 1.1-11.5 1.2-2 2.9-3.4 5.1-4.2 0.9-0.3 1.4-0.6 1.6-1 0.4-0.6-0.3-1.4-2-2.4-4.1-2.4-7.1-1.9-9 1.4l-15.7 27z m30.7 14.2c0.4-0.4 0.5-0.8 0.3-1.1-0.9-1.2-1.3-2.6-1.2-4.2 0-1.6 0.6-3.4 1.8-5.3 1.1-1.9 2.7-3.3 4.8-4 2.1-0.7 4.1-0.6 6 0.5l5.2 3c0.6 0.3 1.1 0.3 1.7-0.1 1.4-1 3.2-1.4 5.3-1.2 2.2 0.2 4.4 0.9 6.6 2.2 2.2 1.3 3.9 2.8 5.1 4.5 1.2 1.7 1.8 3.5 1.8 5.3 0 0.9 0.3 1.5 1 1.9l10.1 5.9c1.1 0.6 2.1 0.7 2.8 0.2 0.8-0.5 1.9-2 3.3-4.5 2.9-4.9 2.5-8.5-1.2-10.6l-25.2-14.6c-2.4-1.4-5.2-2.4-8.4-2.9-3.2-0.6-6.1-0.6-8.7 0-0.5 0.1-0.9 0-1.2-0.1-0.3-0.2-0.5-0.6-0.6-1.2-0.2-4.8-1.6-8.1-4.5-9.7-1.8-1.1-4.1-1.3-6.8-0.8-2.7 0.6-4.7 1.8-5.7 3.7-1.5 2.6-1.6 6.8-0.4 12.7 0.3 1.5 0.3 2.5 0.1 3-0.3 0.5-0.7 0.9-1.3 1.3-3.1 2.2-5.6 4.2-7.4 5.9-1.8 1.7-2.9 3-3.3 3.7-1.2 2-1.2 4.2-0.1 6.3 1.1 2.2 2.5 3.7 4.2 4.7 2.2 1.3 4.3 1.1 6.4-0.4 0.5-0.3 0.8-0.4 1-0.3 0.2 0.1 0.5 0.4 0.9 1 0.4 0.5 0.5 1 0.3 1.4-0.5 0.8-1.7 1.5-3.7 2.2-2 0.7-4.2 0.4-6.4-1-1.4-0.8-2.5-1.7-3.1-2.6-0.6-0.9-1.1-1.4-1.5-1.6-1.3-0.7-2.5-0.1-3.7 2-1 1.7-1.8 4.1-2.3 7.1-0.9 5.7-1.6 8.8-1.9 9.4-0.4 0.6-0.8 0.8-1.4 0.4-3.3-1.9-6.2-0.5-8.9 4.1-1.4 2.5-2.1 4.7-1.9 6.6 0.2 1.9 1.1 3.4 2.8 4.4l12.1 7c1.1 0.6 1.8 0.5 2.3-0.2 0.2-0.3 0.2-0.6 0.2-1.1 0-2 0.5-3.9 1.5-5.6s1.7-2.8 2.2-3.3c0.5-0.5 0.8-0.8 0.9-1 0.1-0.2 0.1-0.4-0.1-0.6-2-1.7-1.7-4.8 0.9-9.2 1.4-2.5 2.9-4.2 4.3-5.2s2.6-1.2 3.7-0.7c0.5 0.3 0.8 0.2 1-0.4 0.1-0.6 0.5-1.3 1-2.1 0.5-0.9 1.2-1.7 2.1-2.6 0.9-0.9 1.6-1.4 2.1-1.5 0.5-0.1 0.8-0.3 0.9-0.4 0.1-0.2 0.1-0.5-0.1-1.1-0.2-0.6-0.1-1.4 0.1-2.4s0.7-2.2 1.5-3.5c0.8-1.7 1.7-2.7 2.7-3.3z m7.7 62c2.2 1.3 4.2 1.5 5.9 0.6 1.7-0.9 3.5-3 5.4-6.3 0.5-0.8 1.1-1.1 1.8-1 2.4 0.3 4.7-1.4 6.9-5.2 2.2-3.7 2.5-6.7 1-8.7-0.2-0.3-0.3-0.5-0.4-0.7 0-0.2 0.1-0.6 0.4-1.1 1.2-2.1 1.6-3.9 1.3-5.7-0.3-1.7-1.2-3-2.8-3.9l-6.4-3.7c-0.6-0.3-0.8-0.6-0.9-0.8 0-0.2 0.1-0.6 0.5-1.2 0.3-0.6 0.6-0.9 0.9-1 0.2-0.1 0.6 0 1.1 0.3l8.1 4.7c1.1 0.6 2.3 0.8 3.4 0.5 1.2-0.3 2.1-1.1 2.9-2.3 0.7-1.2 1-2.5 0.7-3.7-0.3-1.2-1-2.1-2.2-2.8l-8.2-4.8c-0.4-0.3-0.7-0.5-0.7-0.7 0-0.2 0.1-0.6 0.4-1.1 0.3-0.5 0.6-0.8 0.8-0.9 0.2-0.1 0.5 0 0.9 0.2l10.3 6c1.2 0.7 2.3 0.8 3.6 0.4 1.2-0.4 2.2-1.4 3.1-2.9 0.9-1.5 1.2-2.9 1-4.3-0.2-1.3-0.9-2.3-2-3l-9.8-5.7c-0.6-0.4-1-0.6-1.1-0.8-0.1-0.2-0.1-0.5 0.1-0.8 0.8-1.3 0.7-2.8-0.2-4.5-0.9-1.7-2.5-3.1-4.7-4.4-2.2-1.3-4.2-1.9-6-1.9-1.8 0-3.1 0.7-3.9 2-0.2 0.4-0.4 0.6-0.6 0.6-0.2 0-0.5-0.1-0.9-0.3l-7.6-4.4c-1.1-0.6-2.3-0.7-3.5-0.2-1.2 0.5-2.3 1.5-3.1 3-0.9 1.5-1.2 2.9-1 4.1 0.2 1.2 0.9 2.2 2 2.8l7.4 4.3c0.6 0.3 0.8 0.6 0.9 0.8 0 0.2-0.1 0.6-0.4 1.1-0.3 0.5-0.6 0.8-0.7 0.9-0.2 0.1-0.5 0-1-0.3l-4.6-2.7c-1-0.6-2-0.7-3.1-0.3-1.1 0.4-2 1.2-2.8 2.5-0.8 1.3-1 2.5-0.8 3.6 0.2 1.1 0.9 1.9 1.9 2.6l4.8 2.8c0.4 0.2 0.6 0.5 0.6 0.7 0 0.2-0.1 0.6-0.5 1.2s-0.6 0.9-0.8 1.1c-0.2 0.1-0.5 0.1-1-0.2l-4.2-2.5c-1.2-0.7-2.3-0.8-3.5-0.5-1.1 0.4-2.1 1.3-3 2.7-0.8 1.4-1.1 2.8-0.9 4.1 0.3 1.3 0.9 2.2 2 2.9l4.3 2.5c0.4 0.2 0.6 0.5 0.6 0.7 0 0.2-0.2 0.6-0.5 1.3-0.4 0.6-0.6 1-0.8 1.1-0.2 0.1-0.4 0-0.7-0.2l-4.7-2.8c-0.7-0.4-1.4-1.1-2.1-1.9-0.7-0.9-1.1-1.8-1.3-2.7 0-0.3-0.3-0.6-0.7-0.8-0.4-0.2-1.1 0-2.1 0.7s-1.9 1.9-2.8 3.5c-0.9 1.6-1.4 2.9-1.5 4-0.1 1.1 0.1 1.7 0.6 2 0.5 0.3 1.1 0.4 1.8 0.3 1.3-0.3 2.7 0 4 0.8l5.1 2.9c0.4 0.3 0.6 0.5 0.6 0.8 0 0.3-0.2 0.7-0.5 1.2s-0.5 0.8-0.7 1c-0.2 0.1-0.5 0-0.9-0.2l-4.7-2.7c-1.2-0.7-2.5-0.8-3.8-0.2-1.3 0.6-2.5 1.8-3.6 3.7-1.1 1.9-1.5 3.5-1.4 5 0.2 1.5 0.8 2.6 1.9 3.2l3.1 1.8c0.5 0.3 0.8 0.5 0.8 0.7 0.1 0.1 0 0.4-0.2 0.7-1 1.7-1.1 3.3-0.3 4.8s2.6 3.1 5.5 4.7c2.9 1.7 5.1 2.5 6.8 2.4 1.7 0 3-0.9 4-2.7 0.2-0.3 0.4-0.5 0.5-0.5 0.2 0 0.4 0.1 0.8 0.3l6.1 3.4z m0.6-17.9c1.1 0.6 1.6 1.1 1.7 1.4 0.1 0.3-0.1 0.9-0.6 1.7-0.5 0.8-0.8 1.2-1.1 1.3-0.2 0-0.9-0.2-1.8-0.8-1-0.6-1.5-1-1.6-1.3-0.1-0.3 0-0.8 0.5-1.6s0.8-1.2 1.1-1.3c0.3-0.1 0.9 0.1 1.8 0.6z m6.1-10.5c1.1 0.6 1.6 1.1 1.7 1.4 0.1 0.3-0.1 0.9-0.6 1.7-0.5 0.9-0.9 1.3-1.1 1.4-0.2 0-0.9-0.2-1.8-0.8-1-0.6-1.5-1-1.6-1.3-0.1-0.3 0.1-0.9 0.5-1.7 0.5-0.8 0.9-1.3 1.2-1.4 0.2-0.1 0.8 0.1 1.7 0.7zM771.6 217.2c2.9 1.7 5.4 2.2 7.3 1.6 1.9-0.6 3.6-2.2 5.1-4.8 1.5-2.6 2.3-4.7 2.4-6.2 0.1-1.6-0.2-2.6-1-3-0.8-0.5-1.6-0.6-2.5-0.3-2.7 0.7-6.2-0.1-10.3-2.5l-5.8-3.4c-1.3-0.8-2.7-0.9-4-0.4-2.9 0.9-6.6 0.1-11-2.5-2.2-1.3-4-2.6-5.2-4-1.3-1.4-2.2-3.1-2.7-5.1-0.3-1.1-1-1.9-2.2-2.6l-7-4.1c-1.6-0.9-2.8-2-3.7-3.1-0.8-1.1-1.3-2.4-1.3-3.7 0-1.4 0.2-2.6 0.6-3.5 0.4-1 1.2-2.5 2.4-4.5 0.5-0.8 0.5-1.6-0.1-2.4-0.8-1.1-1-2.2-0.8-3.4 0.2-1.2 0.9-2.6 1.9-4.4 1-1.7 2.1-3.1 3.4-4.1 1.2-1 2.4-1.4 3.4-1.3 1 0.1 1.6 0 1.9-0.5 0.3-0.4 0.5-1.1 0.8-1.9 0.3-0.8 0.7-1.7 1.3-2.7 1.5-2.6 3.5-4.2 6-4.8 0.9-0.2 1.5-0.7 1.8-1.3 0.4-0.6 0.2-1.6-0.6-2.9-1.4-2.5-2.3-4.8-2.5-6.8-0.3-2 0.1-4 1.3-5.9 1.1-1.9 3.2-3.6 6.4-5 1.1-0.5 1.9-1.2 2.3-1.9 1.1-1.8-0.1-3.7-3.4-5.6-2.1-1.2-4.5-2.1-7.4-2.8-2.9-0.7-5.1 0.4-6.8 3.3-1 1.7-2.2 5-3.7 9.9s-3.9 10.7-7.2 17.6c-3.4 6.9-9.2 17.5-17.6 31.9-2.2 3.7-2.7 6.8-1.7 9.3 1 2.5 3.7 5 8.1 7.6l13.1 7.6c0.4 0.3 0.7 0.5 0.8 0.6 0.1 0.2 0 0.4-0.2 0.7-0.7 1.2-0.1 2.8 1.7 4.8 1.8 2.1 4.2 4 7.3 5.7 3 1.8 5.4 2.7 7 2.9 1.6 0.1 3-0.5 4.1-1.9 0.3-0.4 0.9-0.4 1.6 0.1l16.7 9.7z m3.5-17.6c2.5 1.5 4.9 2 7 1.6 2.2-0.4 3.9-1.7 5.2-3.9 0.3-0.6 0.6-0.9 0.8-1.1 0.2-0.2 0.7-0.1 1.3 0.3 1.2 0.7 2.4 0.6 3.8-0.2 1.3-0.8 2.6-2.2 3.9-4.4 1.2-2.1 1.9-4 1.9-5.7 0-1.7-0.5-2.9-1.6-3.5-0.8-0.5-0.9-1.2-0.3-2.2 0.9-1.5 0.9-2.5 0-3-0.5-0.3-1.3-0.4-2.5-0.5-2.3 0.1-4.3-0.4-6-1.4-1.7-1-3.1-3.5-4.2-7.5s-1.6-6.2-1.3-6.6c0.2-0.4 0.7-0.6 1.4-0.7 0.7-0.1 1.2 0 1.4 0.1 0.2 0.1 0.3 0.4 0.4 0.8 0.5 3.3 1.1 5.9 1.9 7.7s1.8 3 3 3.8c1.3 0.7 3.2 1 5.8 0.7 2.6-0.3 4.4-1.2 5.3-2.9 0.9-1.6 0.9-4.4 0-8.4-0.2-0.6-0.2-1.1 0-1.3 0.2-0.3 0.9-0.3 2.2 0 6.1 1 9.9 0.2 11.4-2.4 0.9-1.5 1.2-3.7 1-6.6-0.2-2.9-1.4-5-3.6-6.2-2.2-1.3-5.4-1.8-9.5-1.7-4.2 0.2-7.3 0.5-9.4 1.1s-3.2 0.8-3.4 0.7c-0.2-0.1 0-0.5 0.4-1.2l2.4-4.1c1.4-2.4 1.8-4.3 1.4-5.9-0.5-1.5-1.9-3-4.2-4.3l-6.6-3.8c-2.4-1.4-4.6-2.2-6.5-2.3-1.9-0.1-3 0.2-3.5 0.9-0.4 0.7 0 1.9 1.4 3.6 0.6 0.7 1.2 1.7 1.8 2.9 0.6 1.2 0.9 1.9 0.7 2.1-0.1 0.2-0.5 0.5-1.2 0.8-0.6 0.3-1.1 0.4-1.3 0.3-0.2-0.1-0.4-0.4-0.6-0.7-1.8-2.9-3.8-5.8-6.1-8.6s-4-4.6-5.1-5.2c-1.7-1-3.6-1-5.9-0.1-2.2 0.9-3.9 2.3-5 4.1-1.1 1.8-1 4 0.2 6.6 1.2 2.6 2.2 4.1 3.1 4.6 0.8 0.5 2.2 0.3 4-0.6 2.7-1.4 5.1-1.5 7.3-0.2 2.1 1.2 3.7 3.4 4.9 6.5 1.1 3.1 1.1 5.7-0.1 7.7-1.2 2-3.9 3.8-8.1 5.3-4.2 1.5-7.5 1.5-10 0.1-1.2-0.7-2.2-1.7-3.1-2.9-0.9-1.3-1.5-2.6-1.8-3.9-0.3-1.3-0.7-2.1-1-2.3-0.3-0.2-1 0.5-1.9 2.1-0.9 1.6-1.1 3.1-0.5 4.4 0.6 1.4 2 2.7 4.3 4l9.6 5.6c0.6 0.3 0.6 0.8 0.2 1.5-0.4 0.7-0.7 1.1-1 1.3-0.2 0.2-0.6 0.1-1-0.1l-8.6-5c-1.5-0.9-2.9-1.8-4.1-2.8-1.2-1-1.9-1.7-2.2-2.3-0.2-0.5-0.7-1-1.3-1.4-0.6-0.4-1.5-0.2-2.6 0.4-1.1 0.6-2.1 1.7-3 3.3-0.9 1.5-1.2 2.7-1 3.5 0.2 0.8 0.9 1.5 2 2.1 1.1 0.6 2.9 1.4 5.5 2.3 2.5 0.9 5.2 2.2 7.9 3.8 2.7 1.6 4.2 2.5 4.4 2.7 0.2 0.2 0.1 0.7-0.3 1.3-0.4 0.7-0.7 1-1 1.1-0.3 0.1-0.6 0-1.1-0.2-3.4-1.8-6.5-3.3-9.4-4.7-2.8-1.3-4.6-2.1-5.3-2.3-0.7-0.2-1.4-0.2-1.9 0.2-0.6 0.3-1.3 1.2-2.2 2.8-0.9 1.6-1.2 3-0.8 4.4 0.3 1.4 1.5 2.7 3.6 3.9l10.1 5.8c0.5 0.3 0.6 0.7 0.3 1.2-0.7 1.2-0.5 2.5 0.6 4s2.9 3 5.6 4.5c2.6 1.5 4.9 2.4 6.7 2.5 1.8 0.1 3.1-0.4 3.8-1.5 0.2-0.4 0.7-0.4 1.5 0.1l9.7 5.5z m-8.7-61.6c-1.4-0.8-3-0.8-4.8 0.2-1.8 0.9-3.6 1.6-5.2 2.2-1.6 0.5-2.8 1.3-3.4 2.5-0.8 1.4-0.9 3.1-0.1 5 0.7 1.9 1.8 3.3 3.1 4 1.8 1.1 4.4 1 7.6-0.3 3.2-1.2 5.3-2.6 6.1-4 0.8-1.4 0.8-3.2 0-5.3-0.8-2.1-1.9-3.5-3.3-4.3z m8.9 44.1c0.8 0.5 0.9 1.2 0.2 2.3-0.6 1.1-1.3 1.4-2.1 0.9l-3.2-1.8c-0.8-0.5-0.9-1.3-0.3-2.3 0.6-1.1 1.3-1.3 2.2-0.9l3.2 1.8z m5.6-9.7c0.8 0.5 0.9 1.2 0.2 2.3-0.6 1.1-1.3 1.4-2.1 0.9l-3.2-1.8c-0.5-0.3-0.8-0.6-0.9-0.8-0.1-0.3 0.1-0.7 0.5-1.4 0.4-0.6 0.7-1 1-1.2 0.3-0.2 0.7-0.1 1.3 0.2l3.2 1.8z"  horiz-adv-x="1024" />

    
    <glyph glyph-name="bingtanghulu" unicode="&#59067;" d="M101.1 25.3c-4.8 3.7-5.7 10.6-2 15.4L661 774.9c3.7 4.8 10.6 5.7 15.4 2 4.8-3.7 5.7-10.6 2-15.4L116.5 27.3c-3.7-4.8-10.6-5.7-15.4-2zM97.8 21c-7.2 5.5-8.5 15.8-3.1 22.9l561.9 734.2c5.5 7.2 15.8 8.5 22.9 3.1 7.2-5.5 8.5-15.8 3.1-22.9L120.8 24.1c-5.5-7.2-15.8-8.6-23-3.1zM673 772.6c-2.4 1.9-5.9 1.4-7.8-1L103.3 37.4c-1.9-2.4-1.4-5.9 1-7.8 2.4-1.9 5.9-1.4 7.8 1L674 764.8c1.9 2.5 1.5 6-1 7.8zM555.4 618.9m-80.4 0a80.4 80.4 0 1 1 160.8 0 80.4 80.4 0 1 1-160.8 0ZM503.2 550.8c-37.6 28.8-44.8 82.8-16 120.3s82.8 44.8 120.3 16c37.6-28.8 44.8-82.8 16-120.3s-82.7-44.8-120.3-16zM601 678.5c-32.9 25.2-80.1 18.9-105.2-14-25.2-32.9-18.9-80.1 14-105.2 32.9-25.2 80.1-18.9 105.2 14s18.9 80.1-14 105.2zM666.3 763.8m-80.4 0a80.4 80.4 0 1 1 160.8 0 80.4 80.4 0 1 1-160.8 0ZM614.1 695.6c-37.6 28.8-44.8 82.8-16 120.3 28.8 37.6 82.8 44.8 120.3 16 37.6-28.8 44.8-82.8 16-120.3s-82.7-44.7-120.3-16z m97.8 127.8c-32.9 25.2-80.1 18.9-105.2-14-25.2-32.9-18.9-80.1 14-105.2 32.9-25.2 80.1-18.9 105.2 14s18.8 80.1-14 105.2zM614.038045 704.27765a77.9 71.6 52.574 1 1 94.685311 123.726844 77.9 71.6 52.574 1 1-94.685311-123.726844ZM511.759946 555.950013a76.4 71.6 52.574 1 1 92.862102 121.344427 76.4 71.6 52.574 1 1-92.862102-121.344427ZM444.5 474.1m-80.4 0a80.4 80.4 0 1 1 160.8 0 80.4 80.4 0 1 1-160.8 0ZM392.4 405.9c-37.6 28.8-44.8 82.8-16 120.3 28.8 37.6 82.8 44.8 120.3 16 37.6-28.8 44.8-82.8 16-120.3-28.8-37.6-82.8-44.8-120.3-16z m97.7 127.8c-32.9 25.2-80.1 18.9-105.2-14-25.2-32.9-18.9-80.1 14-105.2 32.9-25.2 80.1-18.9 105.2 14 25.2 32.8 18.9 80-14 105.2zM333.7 329.2m-80.4 0a80.4 80.4 0 1 1 160.8 0 80.4 80.4 0 1 1-160.8 0ZM281.5 261c-37.6 28.8-44.8 82.8-16 120.3s82.8 44.8 120.3 16c37.6-28.8 44.8-82.8 16-120.3-28.7-37.6-82.7-44.8-120.3-16z m97.8 127.8c-32.9 25.2-80.1 18.9-105.2-14-25.2-32.9-18.9-80.1 14-105.2 32.9-25.2 80.1-18.9 105.2 14 25.1 32.8 18.8 80-14 105.2zM222.8 184.3m-80.4 0a80.4 80.4 0 1 1 160.8 0 80.4 80.4 0 1 1-160.8 0ZM170.6 116.1c-37.6 28.8-44.8 82.8-16 120.3 28.8 37.6 82.8 44.8 120.3 16 37.6-28.8 44.8-82.8 16-120.3-28.7-37.6-82.7-44.7-120.3-16z m97.8 127.8c-32.9 25.2-80.1 18.9-105.2-14-25.2-32.9-18.9-80.1 14-105.2s80.1-18.9 105.2 14c25.1 32.9 18.9 80.1-14 105.2zM395.782582 415.080186a76.4 71.6 52.574 1 1 92.862102 121.344427 76.4 71.6 52.574 1 1-92.862102-121.344427ZM289.684582 265.784138a76.4 71.6 52.574 1 1 92.862102 121.344427 76.4 71.6 52.574 1 1-92.862102-121.344427ZM179.033088 121.284388a76.4 71.6 52.574 1 1 92.862102 121.344427 76.4 71.6 52.574 1 1-92.862102-121.344427ZM730.8 848.2m-18.5 0a18.5 18.5 0 1 1 37 0 18.5 18.5 0 1 1-37 0ZM716.3 829.2c-10.5 8-12.5 23-4.5 33.5s23 12.5 33.5 4.5 12.5-23 4.5-33.5-23-12.5-33.5-4.5z m22.5 29.4c-5.7 4.4-14 3.3-18.4-2.4s-3.3-14 2.4-18.4c5.7-4.4 14-3.3 18.4 2.4 4.4 5.7 3.4 14-2.4 18.4zM258.5-49.5c-4.8 3.7-5.7 10.6-2 15.4l561.9 734.2c3.7 4.8 10.6 5.7 15.4 2 4.8-3.7 5.7-10.6 2-15.4L273.9-47.5c-3.7-4.8-10.6-5.7-15.4-2zM255.2-53.8c-7.2 5.5-8.5 15.8-3.1 22.9L814 703.3c5.5 7.2 15.8 8.5 22.9 3.1 7.2-5.5 8.5-15.8 3.1-22.9L278.2-50.8c-5.5-7.1-15.8-8.5-23-3z m575.2 751.6c-2.4 1.9-5.9 1.4-7.8-1L260.7-37.4c-1.9-2.4-1.4-5.9 1-7.8 2.4-1.9 5.9-1.4 7.8 1l562 734.2c1.8 2.4 1.4 5.9-1.1 7.8zM712.8 544.1m-80.4 0a80.4 80.4 0 1 1 160.8 0 80.4 80.4 0 1 1-160.8 0ZM660.6 475.9c-37.6 28.8-44.8 82.8-16 120.3 28.8 37.6 82.8 44.8 120.3 16 37.6-28.8 44.8-82.8 16-120.3-28.7-37.6-82.7-44.7-120.3-16z m97.8 127.8c-32.9 25.2-80.1 18.9-105.2-14-25.2-32.9-18.9-80.1 14-105.2 32.9-25.2 80.1-18.9 105.2 14s18.9 80.1-14 105.2zM823.7 689m-80.4 0a80.4 80.4 0 1 1 160.8 0 80.4 80.4 0 1 1-160.8 0ZM771.5 620.8c-37.6 28.8-44.8 82.8-16 120.3 28.8 37.6 82.8 44.8 120.3 16 37.6-28.8 44.8-82.8 16-120.3s-82.7-44.8-120.3-16z m97.8 127.8c-32.9 25.2-80.1 18.9-105.2-14-25.2-32.9-18.9-80.1 14-105.2 32.9-25.2 80.1-18.9 105.2 14s18.8 80-14 105.2zM771.493233 629.403922a77.9 71.6 52.574 1 1 94.685311 123.726844 77.9 71.6 52.574 1 1-94.685311-123.726844ZM669.135318 481.135872a76.4 71.6 52.574 1 1 92.862102 121.344427 76.4 71.6 52.574 1 1-92.862102-121.344427ZM601.9 399.2m-80.4 0a80.4 80.4 0 1 1 160.8 0 80.4 80.4 0 1 1-160.8 0ZM549.8 331.1c-37.6 28.8-44.8 82.8-16 120.3 28.8 37.6 82.8 44.8 120.3 16 37.6-28.8 44.8-82.8 16-120.3-28.8-37.6-82.8-44.8-120.3-16z m97.7 127.7c-32.9 25.2-80.1 18.9-105.2-14-25.2-32.9-18.9-80.1 14-105.2 32.9-25.2 80.1-18.9 105.2 14 25.2 32.9 18.9 80.1-14 105.2zM491.1 254.4m-80.4 0a80.4 80.4 0 1 1 160.8 0 80.4 80.4 0 1 1-160.8 0ZM438.9 186.2c-37.6 28.8-44.8 82.8-16 120.3 28.8 37.6 82.8 44.8 120.3 16 37.6-28.8 44.8-82.8 16-120.3-28.7-37.6-82.7-44.8-120.3-16zM536.7 314c-32.9 25.2-80.1 18.9-105.2-14-25.2-32.9-18.9-80.1 14-105.2 32.9-25.2 80.1-18.9 105.2 14 25.1 32.8 18.8 80-14 105.2zM380.2 109.5m-80.4 0a80.4 80.4 0 1 1 160.8 0 80.4 80.4 0 1 1-160.8 0ZM328 41.3c-37.6 28.8-44.8 82.8-16 120.3 28.8 37.6 82.8 44.8 120.3 16 37.6-28.8 44.8-82.8 16-120.3-28.7-37.6-82.7-44.8-120.3-16z m97.8 127.8c-32.9 25.2-80.1 18.9-105.2-14-25.2-32.9-18.9-80.1 14-105.2s80.1-18.9 105.2 14c25.1 32.8 18.9 80-14 105.2zM553.158748 340.266438a76.4 71.6 52.574 1 1 92.862102 121.344427 76.4 71.6 52.574 1 1-92.862102-121.344427ZM447.059954 190.969997a76.4 71.6 52.574 1 1 92.862102 121.344427 76.4 71.6 52.574 1 1-92.862102-121.344427ZM336.487874 46.409473a76.4 71.6 52.574 1 1 92.862102 121.344427 76.4 71.6 52.574 1 1-92.862102-121.344427ZM888.2 773.3m-18.5 0a18.5 18.5 0 1 1 37 0 18.5 18.5 0 1 1-37 0ZM873.7 754.4c-10.5 8-12.5 23-4.5 33.5s23 12.5 33.5 4.5 12.5-23 4.5-33.5c-8-10.6-23-12.6-33.5-4.5z m22.5 29.4c-5.7 4.4-14 3.3-18.4-2.4s-3.3-14 2.4-18.4c5.7-4.4 14-3.3 18.4 2.4 4.4 5.7 3.3 14-2.4 18.4z"  horiz-adv-x="1024" />

    
    <glyph glyph-name="liwu" unicode="&#59068;" d="M874.5 398.5H136.9c-15.6 0-28.3 12.7-28.3 28.3V560c0 20.4 16.5 37 37 37h720.2c20.4 0 37-16.5 37-37v-133.3c0-15.6-12.7-28.2-28.3-28.2zM874.5 393.3H136.9c-18.4 0-33.4 15-33.4 33.4V560c0 23.2 18.9 42.1 42.1 42.1h720.2c23.2 0 42.1-18.9 42.1-42.1v-133.3c0-18.4-15-33.4-33.4-33.4zM145.6 591.8c-17.5 0-31.8-14.3-31.8-31.8v-133.3c0-12.7 10.4-23.1 23.1-23.1h737.6c12.7 0 23.1 10.4 23.1 23.1V560c0 17.5-14.3 31.8-31.8 31.8H145.6zM803.3-32H208.1c-17.7 0-32 14.3-32 32V398.4h659.1v-398.5c0.1-17.6-14.2-31.9-31.9-31.9zM803.3-37.2H208.1c-20.5 0-37.2 16.7-37.2 37.2V403.6h669.5v-403.7c0.1-20.4-16.6-37.1-37.1-37.1z m-622 430.5V0c0-14.8 12-26.8 26.8-26.8h595.2c14.8 0 26.8 12 26.8 26.8V393.3H181.3zM182.3 392.1h647.1v-66.4H182.3zM182.3 243.5v-238.3c0-17.2 14-31.2 31.2-31.2h198.7S233 25.7 182.3 243.5zM448.2 629.5s-212.1-7.9-189.5 58.4c22.7 66.3 148.3 36.7 193.7-4.7l45.4-41.4-49.6-12.3zM428 624.1c-15.6 0-38.3 0.4-62.1 2.4-58.4 4.9-94.7 16.5-108.1 34.4-6.3 8.4-7.6 18.1-4 28.7 6.7 19.7 22.5 33.2 45.6 39.1 49.5 12.7 123.5-11.5 156.5-41.6l52.6-47.9-59.5-14.8h-0.5c-0.3 0-8.1-0.3-20.5-0.3z m-98.9 97.7c-9.6 0-18.7-1-27.1-3.1-19.8-5.1-32.7-16-38.4-32.4-2.5-7.3-1.7-13.6 2.5-19.2 23.1-31.1 138.2-34 181.3-32.4l39.8 9.9-38.2 34.9c-24.9 22.7-76.8 42.3-119.9 42.3zM448.2 595.4s-212.1-7.9-189.5 58.4c22.7 66.3 148.3 36.7 193.7-4.7l45.4-41.4-49.6-12.3zM428 590c-15.6 0-38.3 0.4-62.1 2.4-58.4 4.9-94.7 16.5-108.1 34.4-6.3 8.4-7.6 18.1-4 28.7 6.7 19.7 22.5 33.2 45.6 39.1 49.5 12.7 123.5-11.5 156.5-41.6l52.6-47.9-59.5-14.8h-0.5c-0.3-0.1-8.1-0.3-20.5-0.3z m-98.9 97.7c-9.6 0-18.7-1-27.1-3.1-19.8-5.1-32.7-16-38.4-32.4-2.5-7.3-1.7-13.6 2.5-19.2 23.1-31.1 138.2-34 181.3-32.4l39.8 9.9-38.2 34.8c-24.9 22.7-76.8 42.4-119.9 42.4zM456.2 618.5s-155.3 11.8-182 28.4c-24.8 15.4 13.8 40.9 56.9 42.7 43.4 1.9 86.7-21.2 108.3-38.9 40.6-33.2 66.4-26.9 66.4-26.9l-49.6-5.3zM563.2 626.3s212.1-7.9 189.5 58.4S604.4 721.4 559 680l-45.4-41.4 49.6-12.3zM583.5 620.9c-12.4 0-20.3 0.3-20.4 0.3h-0.5L503 636l52.6 47.9c33 30.1 106.9 54.3 156.5 41.6 23.1-5.9 38.9-19.4 45.6-39.1 3.6-10.6 2.3-20.3-4-28.7-13.3-18-49.7-29.5-108.1-34.4-23.8-2-46.5-2.4-62.1-2.4zM564 631.5c43.1-1.6 158.2 1.3 181.3 32.4 4.2 5.6 5 11.9 2.5 19.2-5.6 16.4-18.5 27.3-38.4 32.4-45.7 11.7-116.5-11.5-146.9-39.3l-38.3-34.9 39.8-9.8zM556.3 595.4s212.1-7.9 189.5 58.4-148.3 36.7-193.7-4.7l-45.4-41.4 49.6-12.3zM576.5 590c-12.4 0-20.3 0.3-20.4 0.3h-0.5L496 605l52.6 47.9c33 30.1 106.9 54.3 156.5 41.6 23.1-5.9 38.9-19.4 45.6-39.1 3.6-10.6 2.3-20.3-4-28.7-13.3-18-49.7-29.5-108.1-34.4-23.8-1.9-46.5-2.3-62.1-2.3zM557 600.6c43.1-1.5 158.2 1.3 181.3 32.4 4.2 5.6 5 11.9 2.5 19.2-5.6 16.4-18.5 27.3-38.4 32.4-45.7 11.7-116.5-11.5-146.9-39.3l-38.3-34.9 39.8-9.8zM476.9 623.8S293.6 389.4 313.2 374.2l41.4 22.5 29.8-44.1s94.2 157.1 118 225.9c23.1 66.5 11 45.3 11 45.3h-36.5zM384.4 347.4c-1.7 0-3.3 0.9-4.3 2.3L353 389.9l-37.3-20.2c-1.8-1-4-0.8-5.6 0.5-1.3 1-2.9 2.9-3.4 6.3-0.7 5.8 1.5 17.2 24.9 54.9 13.6 21.8 32.8 50 57.1 83.7 41.3 57.3 83.7 111.5 84.1 112 1 1.3 2.5 2 4.1 2h33.7c2.4 3 5 4 7.7 2.7 5.1-2.3 3.4-8.5 1.5-15.8-2.2-8.2-6.4-21.4-12.6-39.2-23.8-68.5-114.6-220.5-118.5-226.9-0.9-1.5-2.5-2.5-4.3-2.5 0.1 0 0.1 0 0 0z m-29.8 54.4c1.7 0 3.3-0.8 4.3-2.3l25.2-37.4c18.4 31.2 92.9 158.6 113.4 218 7.2 20.8 10.7 32.2 12.4 38.5h-30.5c-8.1-10.4-46.5-60-83.7-111.6-60.9-84.5-75.1-114.2-78.1-124.5l34.6 18.7c0.7 0.4 1.6 0.6 2.4 0.6zM544.8 618.5s155.3 11.8 182 28.4c24.8 15.4-13.8 40.9-56.9 42.7-43.4 1.9-86.7-21.2-108.3-38.9-40.6-33.2-66.4-26.9-66.4-26.9l49.6-5.3zM487.5 618.3s216.2-104.5 161.2-185.2l-37.3 24.4-29.5-45.9s-41.3 164.6-110.1 194.7l15.7 12zM581.8 406.5c-0.3 0-0.6 0-0.8 0.1-2 0.3-3.7 1.8-4.2 3.8-0.4 1.6-41.5 162.5-107.1 191.2-1.7 0.7-2.8 2.3-3.1 4.1-0.2 1.8 0.5 3.6 2 4.7l15.7 12c1.5 1.2 3.6 1.4 5.4 0.5 6.2-3 151.7-74 171-146.2 4.5-16.8 1.9-32.5-7.7-46.6-1.6-2.3-4.7-3-7.1-1.4l-33 21.5-26.7-41.5c-1-1.4-2.6-2.2-4.4-2.2zM481.4 607.2c56-32.8 92-146.3 102.4-183l23.2 36.1c0.7 1.2 1.9 2 3.3 2.3 1.3 0.3 2.8 0 3.9-0.7l32.9-21.5c5.7 10.4 6.9 21.5 3.6 33.8C634 536.5 508.6 601.9 488 612.3l-6.6-5.1zM453 608.6a45 27.9 0 1 1 90 0 45 27.9 0 1 1-90 0ZM498 575.5c-28.1 0-50.1 14.5-50.1 33.1s22 33.1 50.1 33.1 50.1-14.5 50.1-33.1-22-33.1-50.1-33.1z m0 55.8c-21.6 0-39.8-10.4-39.8-22.7s18.2-22.7 39.8-22.7c21.6 0 39.8 10.4 39.8 22.7s-18.3 22.7-39.8 22.7z"  horiz-adv-x="1024" />

    


  </font>
</defs>
</svg>
